%TF.GenerationSoftware,KiCad,Pcbnew,8.0.8*%
%TF.CreationDate,2025-02-23T18:34:37+05:30*%
%TF.ProjectId,my-template,6d792d74-656d-4706-9c61-74652e6b6963,rev?*%
%TF.SameCoordinates,Original*%
%TF.FileFunction,Copper,L1,Top*%
%TF.FilePolarity,Positive*%
%FSLAX46Y46*%
G04 Gerber Fmt 4.6, Leading zero omitted, Abs format (unit mm)*
G04 Created by KiCad (PCBNEW 8.0.8) date 2025-02-23 18:34:37*
%MOMM*%
%LPD*%
G01*
G04 APERTURE LIST*
G04 Aperture macros list*
%AMRoundRect*
0 Rectangle with rounded corners*
0 $1 Rounding radius*
0 $2 $3 $4 $5 $6 $7 $8 $9 X,Y pos of 4 corners*
0 Add a 4 corners polygon primitive as box body*
4,1,4,$2,$3,$4,$5,$6,$7,$8,$9,$2,$3,0*
0 Add four circle primitives for the rounded corners*
1,1,$1+$1,$2,$3*
1,1,$1+$1,$4,$5*
1,1,$1+$1,$6,$7*
1,1,$1+$1,$8,$9*
0 Add four rect primitives between the rounded corners*
20,1,$1+$1,$2,$3,$4,$5,0*
20,1,$1+$1,$4,$5,$6,$7,0*
20,1,$1+$1,$6,$7,$8,$9,0*
20,1,$1+$1,$8,$9,$2,$3,0*%
G04 Aperture macros list end*
%TA.AperFunction,EtchedComponent*%
%ADD10C,0.000000*%
%TD*%
%TA.AperFunction,SMDPad,CuDef*%
%ADD11RoundRect,0.250000X-0.250000X-0.475000X0.250000X-0.475000X0.250000X0.475000X-0.250000X0.475000X0*%
%TD*%
%TA.AperFunction,SMDPad,CuDef*%
%ADD12RoundRect,0.200000X-0.200000X-0.275000X0.200000X-0.275000X0.200000X0.275000X-0.200000X0.275000X0*%
%TD*%
%TA.AperFunction,SMDPad,CuDef*%
%ADD13RoundRect,0.200000X-0.275000X0.200000X-0.275000X-0.200000X0.275000X-0.200000X0.275000X0.200000X0*%
%TD*%
%TA.AperFunction,SMDPad,CuDef*%
%ADD14R,0.274600X0.804800*%
%TD*%
%TA.AperFunction,SMDPad,CuDef*%
%ADD15R,0.804800X0.274600*%
%TD*%
%TA.AperFunction,SMDPad,CuDef*%
%ADD16R,2.650000X2.650000*%
%TD*%
%TA.AperFunction,SMDPad,CuDef*%
%ADD17RoundRect,0.218750X-0.256250X0.218750X-0.256250X-0.218750X0.256250X-0.218750X0.256250X0.218750X0*%
%TD*%
%TA.AperFunction,SMDPad,CuDef*%
%ADD18RoundRect,0.225000X-0.225000X-0.250000X0.225000X-0.250000X0.225000X0.250000X-0.225000X0.250000X0*%
%TD*%
%TA.AperFunction,ComponentPad*%
%ADD19C,1.879600*%
%TD*%
%TA.AperFunction,SMDPad,CuDef*%
%ADD20RoundRect,0.250000X-0.475000X0.250000X-0.475000X-0.250000X0.475000X-0.250000X0.475000X0.250000X0*%
%TD*%
%TA.AperFunction,SMDPad,CuDef*%
%ADD21R,1.000000X1.500000*%
%TD*%
%TA.AperFunction,SMDPad,CuDef*%
%ADD22RoundRect,0.225000X0.250000X-0.225000X0.250000X0.225000X-0.250000X0.225000X-0.250000X-0.225000X0*%
%TD*%
%TA.AperFunction,SMDPad,CuDef*%
%ADD23RoundRect,0.200000X0.275000X-0.200000X0.275000X0.200000X-0.275000X0.200000X-0.275000X-0.200000X0*%
%TD*%
%TA.AperFunction,SMDPad,CuDef*%
%ADD24R,2.200000X2.800000*%
%TD*%
%TA.AperFunction,SMDPad,CuDef*%
%ADD25R,2.800000X2.800000*%
%TD*%
%TA.AperFunction,SMDPad,CuDef*%
%ADD26R,2.600000X2.800000*%
%TD*%
%TA.AperFunction,SMDPad,CuDef*%
%ADD27RoundRect,0.225000X-0.250000X0.225000X-0.250000X-0.225000X0.250000X-0.225000X0.250000X0.225000X0*%
%TD*%
%TA.AperFunction,ViaPad*%
%ADD28C,0.600000*%
%TD*%
%TA.AperFunction,Conductor*%
%ADD29C,0.150000*%
%TD*%
%ADD30C,0.350000*%
G04 APERTURE END LIST*
D10*
%TA.AperFunction,EtchedComponent*%
%TO.C,JP1*%
G36*
X133080000Y-83580000D02*
G01*
X132580000Y-83580000D01*
X132580000Y-82980000D01*
X133080000Y-82980000D01*
X133080000Y-83580000D01*
G37*
%TD.AperFunction*%
%TD*%
D11*
%TO.P,C4,1*%
%TO.N,/HPDRIVE*%
X146800000Y-97990000D03*
%TO.P,C4,2*%
%TO.N,/HPSENSE*%
X148700000Y-97990000D03*
%TD*%
D12*
%TO.P,R10,1*%
%TO.N,/REFIN*%
X150440000Y-103740000D03*
%TO.P,R10,2*%
%TO.N,+3V3*%
X152090000Y-103740000D03*
%TD*%
D13*
%TO.P,R8,1*%
%TO.N,/REFOUT*%
X140330000Y-101785000D03*
%TO.P,R8,2*%
%TO.N,/OPAMP-*%
X140330000Y-103435000D03*
%TD*%
%TO.P,R13,1*%
%TO.N,/HPSENSE*%
X154380000Y-99050000D03*
%TO.P,R13,2*%
%TO.N,Net-(R11-Pad1)*%
X154380000Y-100700000D03*
%TD*%
D14*
%TO.P,U1,1,HPDRIVE*%
%TO.N,/HPDRIVE*%
X146610001Y-100757601D03*
%TO.P,U1,2,IN+*%
%TO.N,/IN+*%
X146109999Y-100757601D03*
%TO.P,U1,3,IN-*%
%TO.N,/IN-*%
X145610000Y-100757601D03*
%TO.P,U1,4,RLDFB*%
%TO.N,/RLDFB*%
X145110001Y-100757601D03*
%TO.P,U1,5,RLD*%
%TO.N,/RLD*%
X144609999Y-100757601D03*
D15*
%TO.P,U1,6,SW*%
%TO.N,/SW*%
X143657601Y-101709999D03*
%TO.P,U1,7,OPAMP+*%
%TO.N,/OPAMP+*%
X143657601Y-102210001D03*
%TO.P,U1,8,REFOUT*%
%TO.N,/REFOUT*%
X143657601Y-102710000D03*
%TO.P,U1,9,OPAMP-*%
%TO.N,/OPAMP-*%
X143657601Y-103209999D03*
%TO.P,U1,10,OUT*%
%TO.N,/SIGNAL_OUT*%
X143657601Y-103710001D03*
D14*
%TO.P,U1,11,LOD-*%
%TO.N,/LO-*%
X144609999Y-104662399D03*
%TO.P,U1,12,LOD+*%
%TO.N,/LO+*%
X145110001Y-104662399D03*
%TO.P,U1,13,\u002ASDN*%
%TO.N,/SDN*%
X145610000Y-104662399D03*
%TO.P,U1,14,AC/\u002ADC*%
%TO.N,/AC*%
X146109999Y-104662399D03*
%TO.P,U1,15,FR*%
%TO.N,+3V3*%
X146610001Y-104662399D03*
D15*
%TO.P,U1,16,GND*%
%TO.N,GND*%
X147562399Y-103710001D03*
%TO.P,U1,17,VS+*%
%TO.N,+3V3*%
X147562399Y-103209999D03*
%TO.P,U1,18,REFIN*%
%TO.N,/REFIN*%
X147562399Y-102710000D03*
%TO.P,U1,19,IAOUT*%
%TO.N,/IAOUT*%
X147562399Y-102210001D03*
%TO.P,U1,20,HPSENSE*%
%TO.N,/HPSENSE*%
X147562399Y-101709999D03*
D16*
%TO.P,U1,HTAB,EPAD*%
%TO.N,GND*%
X145610000Y-102710000D03*
%TD*%
D17*
%TO.P,D1,1,K*%
%TO.N,Net-(D1-K)*%
X138065100Y-83735000D03*
%TO.P,D1,2,A*%
%TO.N,Net-(D1-A)*%
X138065100Y-85310000D03*
%TD*%
D18*
%TO.P,C5,1*%
%TO.N,+3V3*%
X146955100Y-106455000D03*
%TO.P,C5,2*%
%TO.N,GND*%
X148505100Y-106455000D03*
%TD*%
D12*
%TO.P,R11,1*%
%TO.N,Net-(R11-Pad1)*%
X150560000Y-98100000D03*
%TO.P,R11,2*%
%TO.N,/IAOUT*%
X152210000Y-98100000D03*
%TD*%
D13*
%TO.P,R7,1*%
%TO.N,Net-(C1-Pad1)*%
X138140000Y-98420000D03*
%TO.P,R7,2*%
%TO.N,/OPAMP+*%
X138140000Y-100070000D03*
%TD*%
D19*
%TO.P,J3,1,Pin_1*%
%TO.N,GND*%
X131765100Y-89215000D03*
%TO.P,J3,2,Pin_2*%
%TO.N,+3V3*%
X131765100Y-91755000D03*
%TO.P,J3,3,Pin_3*%
%TO.N,/SIGNAL_OUT*%
X131765100Y-94295000D03*
%TO.P,J3,4,Pin_4*%
%TO.N,/LO-*%
X131765100Y-96835000D03*
%TO.P,J3,5,Pin_5*%
%TO.N,/LO+*%
X131765100Y-99375000D03*
%TO.P,J3,6,Pin_6*%
%TO.N,/SDN*%
X131765100Y-101915000D03*
%TD*%
D13*
%TO.P,R16,1*%
%TO.N,Net-(D1-A)*%
X139116600Y-93905000D03*
%TO.P,R16,2*%
%TO.N,/SIGNAL_OUT*%
X139116600Y-95555000D03*
%TD*%
D18*
%TO.P,C2,1*%
%TO.N,/RLDFB*%
X142860000Y-97930000D03*
%TO.P,C2,2*%
%TO.N,/RLD*%
X144410000Y-97930000D03*
%TD*%
D13*
%TO.P,R3,1*%
%TO.N,/IN+*%
X146363400Y-93925000D03*
%TO.P,R3,2*%
%TO.N,/LA*%
X146363400Y-95575000D03*
%TD*%
D20*
%TO.P,C6,1*%
%TO.N,/SW*%
X156740000Y-103900000D03*
%TO.P,C6,2*%
%TO.N,/REFOUT*%
X156740000Y-105800000D03*
%TD*%
D21*
%TO.P,JP1,1,A*%
%TO.N,GND*%
X132180000Y-83280000D03*
%TO.P,JP1,2,B*%
%TO.N,Net-(D1-K)*%
X133480000Y-83280000D03*
%TD*%
D13*
%TO.P,R15,1*%
%TO.N,+3V3*%
X131715100Y-104995000D03*
%TO.P,R15,2*%
%TO.N,/SDN*%
X131715100Y-106645000D03*
%TD*%
%TO.P,R6,1*%
%TO.N,Net-(C1-Pad1)*%
X135750000Y-98400000D03*
%TO.P,R6,2*%
%TO.N,/IAOUT*%
X135750000Y-100050000D03*
%TD*%
%TO.P,R5,1*%
%TO.N,/RL*%
X140928300Y-93905000D03*
%TO.P,R5,2*%
%TO.N,/RLD*%
X140928300Y-95555000D03*
%TD*%
%TO.P,R1,1*%
%TO.N,/LA*%
X148175100Y-93935000D03*
%TO.P,R1,2*%
%TO.N,Net-(R1-Pad2)*%
X148175100Y-95585000D03*
%TD*%
%TO.P,R14,1*%
%TO.N,/REFIN*%
X152520000Y-105940000D03*
%TO.P,R14,2*%
%TO.N,GND*%
X152520000Y-107590000D03*
%TD*%
D22*
%TO.P,C1,1*%
%TO.N,Net-(C1-Pad1)*%
X138170000Y-103430000D03*
%TO.P,C1,2*%
%TO.N,/SIGNAL_OUT*%
X138170000Y-101880000D03*
%TD*%
D23*
%TO.P,R2,1*%
%TO.N,Net-(R1-Pad2)*%
X142740000Y-95550000D03*
%TO.P,R2,2*%
%TO.N,/RA*%
X142740000Y-93900000D03*
%TD*%
D13*
%TO.P,R17,1*%
%TO.N,+3V3*%
X156700000Y-100380000D03*
%TO.P,R17,2*%
%TO.N,Net-(R1-Pad2)*%
X156700000Y-102030000D03*
%TD*%
D24*
%TO.P,J2,1*%
%TO.N,/RA*%
X155515100Y-83225000D03*
D25*
%TO.P,J2,2*%
%TO.N,/RL*%
X146115100Y-83225000D03*
D24*
%TO.P,J2,3*%
%TO.N,/LA*%
X153515100Y-90625000D03*
D26*
%TO.P,J2,4*%
%TO.N,unconnected-(J2-Pad4)*%
X142015100Y-87675000D03*
%TD*%
D23*
%TO.P,R4,1*%
%TO.N,/IN-*%
X144551700Y-95545000D03*
%TO.P,R4,2*%
%TO.N,/RA*%
X144551700Y-93895000D03*
%TD*%
D19*
%TO.P,J1,1,Pin_1*%
%TO.N,/RL*%
X144905100Y-77675000D03*
%TO.P,J1,2,Pin_2*%
%TO.N,/LA*%
X147445100Y-77675000D03*
%TO.P,J1,3,Pin_3*%
%TO.N,/RA*%
X149985100Y-77675000D03*
%TD*%
D12*
%TO.P,R19,1*%
%TO.N,/AC*%
X146855100Y-108125000D03*
%TO.P,R19,2*%
%TO.N,GND*%
X148505100Y-108125000D03*
%TD*%
D23*
%TO.P,R12,1*%
%TO.N,/SW*%
X154430000Y-104000000D03*
%TO.P,R12,2*%
%TO.N,Net-(R11-Pad1)*%
X154430000Y-102350000D03*
%TD*%
D13*
%TO.P,R9,1*%
%TO.N,/OPAMP-*%
X140310000Y-105045000D03*
%TO.P,R9,2*%
%TO.N,/SIGNAL_OUT*%
X140310000Y-106695000D03*
%TD*%
D22*
%TO.P,C3,1*%
%TO.N,/OPAMP+*%
X140290000Y-99970000D03*
%TO.P,C3,2*%
%TO.N,/REFOUT*%
X140290000Y-98420000D03*
%TD*%
D27*
%TO.P,C7,1*%
%TO.N,/REFIN*%
X150370000Y-106100000D03*
%TO.P,C7,2*%
%TO.N,GND*%
X150370000Y-107650000D03*
%TD*%
D28*
%TO.N,/REFOUT*%
X142450700Y-102710000D03*
X156740000Y-106756100D03*
%TO.N,+3V3*%
X147680500Y-107203300D03*
X152948200Y-103866900D03*
X133944382Y-98705718D03*
X131936800Y-103768900D03*
%TO.N,/SW*%
X142791500Y-101462100D03*
X151005100Y-100805000D03*
%TO.N,/RA*%
X152895100Y-83315000D03*
X148795100Y-90915000D03*
%TO.N,/SDN*%
X144370862Y-106048600D03*
%TO.N,/LO-*%
X144016600Y-104602800D03*
%TO.N,/LO+*%
X145108400Y-105523600D03*
%TO.N,/IAOUT*%
X136233600Y-100921400D03*
X149507100Y-100894300D03*
%TD*%
D29*
%TO.N,/SIGNAL_OUT*%
X138303000Y-99408800D02*
X137647800Y-99408800D01*
X138170000Y-101880000D02*
X139043900Y-102753900D01*
X131765100Y-94295000D02*
X133025100Y-95555000D01*
X139116600Y-98595200D02*
X138303000Y-99408800D01*
X140310000Y-106695000D02*
X140310000Y-106428500D01*
X133025100Y-95555000D02*
X139116600Y-95555000D01*
X140438900Y-106299600D02*
X143028500Y-103710000D01*
X137647800Y-99408800D02*
X137429500Y-99627100D01*
X139043900Y-104904700D02*
X140438900Y-106299600D01*
X140310000Y-106428500D02*
X140438900Y-106299600D01*
X139116600Y-95555000D02*
X139116600Y-98595200D01*
X137429500Y-101139500D02*
X138170000Y-101880000D01*
X137429500Y-99627100D02*
X137429500Y-101139500D01*
X139043900Y-102753900D02*
X139043900Y-104904700D01*
X143657600Y-103710000D02*
X143028500Y-103710000D01*
%TO.N,Net-(C1-Pad1)*%
X137127800Y-102387800D02*
X138170000Y-103430000D01*
X137127800Y-98912000D02*
X137127800Y-102387800D01*
X137127800Y-98912000D02*
X137648000Y-98912000D01*
X135750000Y-98400000D02*
X136262000Y-98912000D01*
X136262000Y-98912000D02*
X137127800Y-98912000D01*
X137648000Y-98912000D02*
X138140000Y-98420000D01*
%TO.N,/RLDFB*%
X143574700Y-97215300D02*
X144870400Y-97215300D01*
X142860000Y-97930000D02*
X143574700Y-97215300D01*
X144870400Y-97215300D02*
X145110000Y-97454900D01*
X145110000Y-97454900D02*
X145110000Y-100757600D01*
%TO.N,/RLD*%
X141817600Y-96444300D02*
X140928300Y-95555000D01*
X144610000Y-98130000D02*
X144610000Y-100757600D01*
X144410000Y-97930000D02*
X144610000Y-98130000D01*
X144410000Y-97930000D02*
X143647300Y-98692700D01*
X141817600Y-98061800D02*
X141817600Y-96444300D01*
X143647300Y-98692700D02*
X142448500Y-98692700D01*
X142448500Y-98692700D02*
X141817600Y-98061800D01*
%TO.N,/OPAMP+*%
X142794600Y-102210000D02*
X143028500Y-102210000D01*
X139849000Y-97736300D02*
X140766400Y-97736300D01*
X141108000Y-98632500D02*
X142185800Y-99710300D01*
X143657600Y-102210000D02*
X143028500Y-102210000D01*
X140290000Y-99970000D02*
X139502800Y-99970000D01*
X139502800Y-99970000D02*
X139502800Y-98082500D01*
X141108000Y-98077900D02*
X141108000Y-98632500D01*
X140766400Y-97736300D02*
X141108000Y-98077900D01*
X142185800Y-101601200D02*
X142794600Y-102210000D01*
X139502800Y-98082500D02*
X139849000Y-97736300D01*
X142185800Y-99710300D02*
X142185800Y-101601200D01*
X139402800Y-100070000D02*
X139502800Y-99970000D01*
X138140000Y-100070000D02*
X139402800Y-100070000D01*
%TO.N,/REFOUT*%
X156740000Y-105800000D02*
X156740000Y-106756100D01*
X141947200Y-102710000D02*
X142450700Y-102710000D01*
X141022200Y-101785000D02*
X141947200Y-102710000D01*
X140330000Y-101785000D02*
X141022200Y-101785000D01*
X140290000Y-98420000D02*
X141022200Y-99152200D01*
X141022200Y-99152200D02*
X141022200Y-101785000D01*
X143657600Y-102710000D02*
X142450700Y-102710000D01*
%TO.N,/HPSENSE*%
X148700000Y-97990000D02*
X149646700Y-97043300D01*
X148191500Y-98498500D02*
X148700000Y-97990000D01*
X148191500Y-101710000D02*
X148191500Y-98498500D01*
X154380000Y-98723900D02*
X154380000Y-99050000D01*
X149646700Y-97043300D02*
X152699400Y-97043300D01*
X152699400Y-97043300D02*
X154380000Y-98723900D01*
X147562400Y-101710000D02*
X148191500Y-101710000D01*
%TO.N,/HPDRIVE*%
X146610000Y-98180000D02*
X146800000Y-97990000D01*
X146610000Y-100757600D02*
X146610000Y-98180000D01*
%TO.N,+3V3*%
X146955100Y-106455000D02*
X147497500Y-106455000D01*
X148191500Y-105218600D02*
X147497500Y-105912600D01*
X133795100Y-98855000D02*
X133795100Y-102915000D01*
X157437700Y-101117700D02*
X157437700Y-102387300D01*
X156700000Y-100380000D02*
X157437700Y-101117700D01*
X147562400Y-103210000D02*
X148191500Y-103210000D01*
X152655000Y-103175000D02*
X152090000Y-103740000D01*
X147497500Y-105912600D02*
X147497500Y-106455000D01*
X155589800Y-103175000D02*
X152655000Y-103175000D01*
X152948200Y-103866900D02*
X152821300Y-103740000D01*
X133795100Y-102915000D02*
X131715100Y-104995000D01*
X155788800Y-102976000D02*
X155589800Y-103175000D01*
X147497500Y-107020300D02*
X147680500Y-107203300D01*
X146610000Y-106109900D02*
X146610000Y-104662400D01*
X146955100Y-106455000D02*
X146610000Y-106109900D01*
X156849000Y-102976000D02*
X155788800Y-102976000D01*
X148191500Y-103210000D02*
X148191500Y-105218600D01*
X147497500Y-106455000D02*
X147497500Y-107020300D01*
X131936800Y-104773300D02*
X131715100Y-104995000D01*
X131936800Y-103768900D02*
X131936800Y-104773300D01*
X152821300Y-103740000D02*
X152090000Y-103740000D01*
X133944382Y-98705718D02*
X133795100Y-98855000D01*
X157437700Y-102387300D02*
X156849000Y-102976000D01*
%TO.N,GND*%
X154430000Y-107590000D02*
X152520000Y-107590000D01*
X143705600Y-104076100D02*
X144243900Y-104076100D01*
X151380000Y-109860000D02*
X151390000Y-109870000D01*
X140066200Y-96522300D02*
X140066200Y-95402900D01*
X151070000Y-106950000D02*
X151380000Y-106950000D01*
X143447100Y-105867300D02*
X143447100Y-104334600D01*
X151390000Y-109870000D02*
X152150000Y-109870000D01*
X139589300Y-94926000D02*
X137476100Y-94926000D01*
X142830500Y-99586100D02*
X141515900Y-98271500D01*
X152150000Y-109870000D02*
X154430000Y-107590000D01*
X147562400Y-103710000D02*
X146610000Y-103710000D01*
X151380000Y-106950000D02*
X151380000Y-109860000D01*
X148505100Y-107650000D02*
X148505100Y-108125000D01*
X150370000Y-107650000D02*
X151070000Y-106950000D01*
X143447100Y-104334600D02*
X143705600Y-104076100D01*
X140066200Y-95402900D02*
X139589300Y-94926000D01*
X144243900Y-104076100D02*
X145610000Y-102710000D01*
X145610000Y-102710000D02*
X142830500Y-99930500D01*
X131645100Y-89095000D02*
X131765100Y-89215000D01*
X146610000Y-103710000D02*
X145610000Y-102710000D01*
X147802400Y-108827700D02*
X146407500Y-108827700D01*
X142830500Y-99930500D02*
X142830500Y-99586100D01*
X148505100Y-107650000D02*
X148505100Y-106455000D01*
X148505100Y-108125000D02*
X147802400Y-108827700D01*
X141515900Y-97972000D02*
X140066200Y-96522300D01*
X146407500Y-108827700D02*
X143447100Y-105867300D01*
X137476100Y-94926000D02*
X131765100Y-89215000D01*
X148505100Y-107650000D02*
X150370000Y-107650000D01*
X141515900Y-98271500D02*
X141515900Y-97972000D01*
X131645100Y-83315000D02*
X131645100Y-89095000D01*
%TO.N,/SW*%
X151065000Y-100864900D02*
X151065000Y-103807300D01*
X143028500Y-101699100D02*
X143028500Y-101710000D01*
X151065000Y-103807300D02*
X151762400Y-104504700D01*
X142791500Y-101462100D02*
X143028500Y-101699100D01*
X156740000Y-103900000D02*
X156640000Y-104000000D01*
X143657600Y-101710000D02*
X143028500Y-101710000D01*
X153925300Y-104504700D02*
X154430000Y-104000000D01*
X151762400Y-104504700D02*
X153925300Y-104504700D01*
X156640000Y-104000000D02*
X154430000Y-104000000D01*
X151005100Y-100805000D02*
X151065000Y-100864900D01*
%TO.N,/REFIN*%
X152520000Y-105940000D02*
X152360000Y-106100000D01*
X147562400Y-102710000D02*
X149270000Y-102710000D01*
X152360000Y-106100000D02*
X150370000Y-106100000D01*
X149270000Y-102710000D02*
X150370000Y-103810000D01*
X150370000Y-106100000D02*
X150370000Y-103810000D01*
X150370000Y-103810000D02*
X150440000Y-103740000D01*
%TO.N,Net-(D1-A)*%
X139116600Y-86361500D02*
X139116600Y-93905000D01*
X138065100Y-85310000D02*
X139116600Y-86361500D01*
%TO.N,Net-(D1-K)*%
X137645100Y-83315000D02*
X138065100Y-83735000D01*
X132945100Y-83315000D02*
X137645100Y-83315000D01*
%TO.N,/RA*%
X142745000Y-93895000D02*
X142740000Y-93900000D01*
X149985100Y-79021700D02*
X154188400Y-83225000D01*
X147531700Y-90915000D02*
X148795100Y-90915000D01*
X149985100Y-77675000D02*
X149985100Y-79021700D01*
X152895100Y-83315000D02*
X152985100Y-83225000D01*
X144551700Y-93895000D02*
X147531700Y-90915000D01*
X155515100Y-83225000D02*
X154188400Y-83225000D01*
X152985100Y-83225000D02*
X155515100Y-83225000D01*
X144551700Y-93895000D02*
X142745000Y-93895000D01*
%TO.N,/RL*%
X146115100Y-83225000D02*
X146115100Y-81598300D01*
X144055800Y-90777500D02*
X140928300Y-93905000D01*
X144905100Y-77675000D02*
X144905100Y-80388300D01*
X144905100Y-80388300D02*
X146115100Y-81598300D01*
X144055800Y-83657600D02*
X144055800Y-90777500D01*
X146115100Y-81598300D02*
X144055800Y-83657600D01*
%TO.N,/LA*%
X148175100Y-93935000D02*
X151485100Y-90625000D01*
X146363400Y-95575000D02*
X146535100Y-95575000D01*
X151485100Y-81715000D02*
X151485100Y-90625000D01*
X147445100Y-77675000D02*
X151485100Y-81715000D01*
X151485100Y-90625000D02*
X153515100Y-90625000D01*
X146535100Y-95575000D02*
X148175100Y-93935000D01*
%TO.N,/SDN*%
X145635200Y-104687600D02*
X145610000Y-104662400D01*
X131765100Y-101915000D02*
X130933300Y-102746800D01*
X130933300Y-102746800D02*
X130933300Y-105863200D01*
X145635200Y-105739263D02*
X145635200Y-104687600D01*
X145325863Y-106048600D02*
X145635200Y-105739263D01*
X130933300Y-105863200D02*
X131715100Y-106645000D01*
X144370862Y-106048600D02*
X145325863Y-106048600D01*
%TO.N,/LO-*%
X144610000Y-104662400D02*
X144550400Y-104602800D01*
X144550400Y-104602800D02*
X144016600Y-104602800D01*
%TO.N,/LO+*%
X145110000Y-105522000D02*
X145108400Y-105523600D01*
X145110000Y-104662400D02*
X145110000Y-105522000D01*
%TO.N,Net-(R1-Pad2)*%
X145934300Y-94893500D02*
X145610200Y-95217600D01*
X145911300Y-96211000D02*
X147549100Y-96211000D01*
X142740000Y-95550000D02*
X143570000Y-94720000D01*
X143570000Y-94720000D02*
X144864800Y-94720000D01*
X145610400Y-93974400D02*
X145610400Y-93561700D01*
X148175100Y-95585000D02*
X148490700Y-95900600D01*
X147549100Y-96211000D02*
X148175100Y-95585000D01*
X146474500Y-94893500D02*
X145934300Y-94893500D01*
X144864800Y-94720000D02*
X145610400Y-93974400D01*
X155674100Y-101004100D02*
X156700000Y-102030000D01*
X155674100Y-99260700D02*
X155674100Y-101004100D01*
X146883700Y-93268600D02*
X147068100Y-93453000D01*
X145610400Y-93561700D02*
X145903500Y-93268600D01*
X152314100Y-95900700D02*
X155674100Y-99260700D01*
X147068100Y-94299900D02*
X146474500Y-94893500D01*
X148490700Y-95900700D02*
X152314100Y-95900700D01*
X145610200Y-95909900D02*
X145911300Y-96211000D01*
X148490700Y-95900600D02*
X148490700Y-95900700D01*
X147068100Y-93453000D02*
X147068100Y-94299900D01*
X145610200Y-95217600D02*
X145610200Y-95909900D01*
X145903500Y-93268600D02*
X146883700Y-93268600D01*
%TO.N,/IN+*%
X145991200Y-100009700D02*
X146110000Y-100128500D01*
X146110000Y-100757600D02*
X146110000Y-100128500D01*
X146363400Y-93925000D02*
X145308500Y-94979900D01*
X145308500Y-96101200D02*
X145991200Y-96783900D01*
X145991200Y-96783900D02*
X145991200Y-100009700D01*
X145308500Y-94979900D02*
X145308500Y-96101200D01*
%TO.N,/IN-*%
X144551700Y-95545000D02*
X144551700Y-95771200D01*
X145610000Y-96829500D02*
X145610000Y-100757600D01*
X144551700Y-95771200D02*
X145610000Y-96829500D01*
%TO.N,/IAOUT*%
X152210000Y-98191400D02*
X152210000Y-98100000D01*
X148191500Y-102210000D02*
X149507100Y-100894400D01*
X135750000Y-100050000D02*
X136233600Y-100533600D01*
X136233600Y-100533600D02*
X136233600Y-100921400D01*
X147562400Y-102210000D02*
X148191500Y-102210000D01*
X149507100Y-100894400D02*
X149507100Y-100894300D01*
X149507100Y-100894300D02*
X152210000Y-98191400D01*
%TO.N,/OPAMP-*%
X140330000Y-103435000D02*
X142470600Y-103435000D01*
X142470600Y-103435000D02*
X142695600Y-103210000D01*
X140330000Y-105025000D02*
X140330000Y-103435000D01*
X140310000Y-105045000D02*
X140330000Y-105025000D01*
X142695600Y-103210000D02*
X143657600Y-103210000D01*
%TO.N,Net-(R11-Pad1)*%
X154430000Y-102350000D02*
X154380000Y-102300000D01*
X153113200Y-99433200D02*
X153113200Y-97921800D01*
X152563700Y-97372300D02*
X151287700Y-97372300D01*
X154380000Y-102300000D02*
X154380000Y-100700000D01*
X154380000Y-100700000D02*
X153113200Y-99433200D01*
X151287700Y-97372300D02*
X150560000Y-98100000D01*
X153113200Y-97921800D02*
X152563700Y-97372300D01*
%TO.N,/AC*%
X146110000Y-107379900D02*
X146855100Y-108125000D01*
X146110000Y-105291500D02*
X146110000Y-107379900D01*
X146110000Y-104662400D02*
X146110000Y-105291500D01*
%TD*%
%TA.AperFunction,Conductor*%
%TO.N,GND*%
G36*
X134853312Y-98960710D02*
G01*
X134902237Y-99006583D01*
X134919528Y-99035185D01*
X134919531Y-99035189D01*
X135021661Y-99137319D01*
X135055146Y-99198642D01*
X135050162Y-99268334D01*
X135021661Y-99312681D01*
X134919531Y-99414810D01*
X134919530Y-99414811D01*
X134831522Y-99560393D01*
X134780913Y-99722807D01*
X134775782Y-99779275D01*
X134774500Y-99793384D01*
X134774500Y-100306616D01*
X134774994Y-100312051D01*
X134780913Y-100377192D01*
X134780913Y-100377194D01*
X134780914Y-100377196D01*
X134831522Y-100539606D01*
X134914417Y-100676731D01*
X134919530Y-100685188D01*
X135039811Y-100805469D01*
X135039813Y-100805470D01*
X135039815Y-100805472D01*
X135185394Y-100893478D01*
X135347804Y-100944086D01*
X135347808Y-100944086D01*
X135354068Y-100946037D01*
X135353348Y-100948346D01*
X135405519Y-100975637D01*
X135440092Y-101036353D01*
X135442635Y-101050985D01*
X135448230Y-101100649D01*
X135448231Y-101100654D01*
X135507811Y-101270923D01*
X135579591Y-101385159D01*
X135603784Y-101423662D01*
X135731338Y-101551216D01*
X135884078Y-101647189D01*
X135903806Y-101654092D01*
X136054345Y-101706768D01*
X136054350Y-101706769D01*
X136233596Y-101726965D01*
X136233600Y-101726965D01*
X136233603Y-101726965D01*
X136367283Y-101711902D01*
X136412855Y-101706768D01*
X136412855Y-101706767D01*
X136414416Y-101706592D01*
X136483238Y-101718646D01*
X136534618Y-101765995D01*
X136552300Y-101829812D01*
X136552300Y-102312034D01*
X136552300Y-102463566D01*
X136566212Y-102515486D01*
X136591519Y-102609936D01*
X136612485Y-102646249D01*
X136667285Y-102741165D01*
X136667287Y-102741167D01*
X137158181Y-103232061D01*
X137191666Y-103293384D01*
X137194500Y-103319742D01*
X137194500Y-103703337D01*
X137194501Y-103703355D01*
X137204650Y-103802707D01*
X137204651Y-103802710D01*
X137257996Y-103963694D01*
X137258001Y-103963705D01*
X137347029Y-104108040D01*
X137347032Y-104108044D01*
X137466955Y-104227967D01*
X137466959Y-104227970D01*
X137611294Y-104316998D01*
X137611297Y-104316999D01*
X137611303Y-104317003D01*
X137772292Y-104370349D01*
X137871655Y-104380500D01*
X138344400Y-104380499D01*
X138411439Y-104400183D01*
X138457194Y-104452987D01*
X138468400Y-104504499D01*
X138468400Y-104821329D01*
X138468397Y-104821379D01*
X138468397Y-104828952D01*
X138468397Y-104828954D01*
X138468399Y-104865186D01*
X138468400Y-104893785D01*
X138468400Y-104980472D01*
X138468403Y-104980489D01*
X138487014Y-105049936D01*
X138487015Y-105049940D01*
X138507621Y-105126844D01*
X138507627Y-105126854D01*
X138537330Y-105178297D01*
X138537331Y-105178300D01*
X138583390Y-105258074D01*
X138632438Y-105307119D01*
X138632453Y-105307133D01*
X138695494Y-105370174D01*
X138695525Y-105370202D01*
X139375287Y-106049914D01*
X139408774Y-106111235D01*
X139403792Y-106180927D01*
X139393728Y-106201744D01*
X139391523Y-106205390D01*
X139340913Y-106367807D01*
X139334500Y-106438386D01*
X139334500Y-106951613D01*
X139340913Y-107022192D01*
X139340913Y-107022194D01*
X139340914Y-107022196D01*
X139391522Y-107184606D01*
X139471329Y-107316623D01*
X139479530Y-107330188D01*
X139599811Y-107450469D01*
X139599813Y-107450470D01*
X139599815Y-107450472D01*
X139745394Y-107538478D01*
X139907804Y-107589086D01*
X139978384Y-107595500D01*
X139978387Y-107595500D01*
X140641613Y-107595500D01*
X140641616Y-107595500D01*
X140712196Y-107589086D01*
X140874606Y-107538478D01*
X141020185Y-107450472D01*
X141140472Y-107330185D01*
X141228478Y-107184606D01*
X141279086Y-107022196D01*
X141285500Y-106951616D01*
X141285500Y-106438384D01*
X141279086Y-106367804D01*
X141278933Y-106367313D01*
X141278927Y-106367008D01*
X141277806Y-106361368D01*
X141278831Y-106361163D01*
X141277781Y-106297453D01*
X141309635Y-106242743D01*
X143002489Y-104549889D01*
X143063810Y-104516406D01*
X143133502Y-104521390D01*
X143189435Y-104563262D01*
X143213388Y-104623689D01*
X143231230Y-104782049D01*
X143231231Y-104782054D01*
X143290811Y-104952323D01*
X143371162Y-105080200D01*
X143386784Y-105105062D01*
X143514338Y-105232616D01*
X143667078Y-105328589D01*
X143680433Y-105333262D01*
X143696905Y-105339026D01*
X143753681Y-105379747D01*
X143779430Y-105444699D01*
X143765975Y-105513261D01*
X143743645Y-105543738D01*
X143741046Y-105546337D01*
X143645073Y-105699076D01*
X143585493Y-105869345D01*
X143585492Y-105869350D01*
X143565297Y-106048596D01*
X143565297Y-106048603D01*
X143585492Y-106227849D01*
X143585493Y-106227854D01*
X143645073Y-106398123D01*
X143720810Y-106518657D01*
X143741046Y-106550862D01*
X143868600Y-106678416D01*
X144021340Y-106774389D01*
X144186037Y-106832019D01*
X144191607Y-106833968D01*
X144191612Y-106833969D01*
X144370858Y-106854165D01*
X144370862Y-106854165D01*
X144370866Y-106854165D01*
X144550111Y-106833969D01*
X144550114Y-106833968D01*
X144550117Y-106833968D01*
X144720384Y-106774389D01*
X144873124Y-106678416D01*
X144891121Y-106660419D01*
X144952444Y-106626934D01*
X144978802Y-106624100D01*
X145409756Y-106624100D01*
X145409756Y-106627472D01*
X145463343Y-106635825D01*
X145515601Y-106682202D01*
X145534500Y-106748002D01*
X145534500Y-107304134D01*
X145534500Y-107455666D01*
X145543292Y-107488477D01*
X145573719Y-107602036D01*
X145611602Y-107667650D01*
X145649485Y-107733265D01*
X145649487Y-107733267D01*
X145918281Y-108002061D01*
X145951766Y-108063384D01*
X145954600Y-108089742D01*
X145954600Y-108456613D01*
X145961013Y-108527192D01*
X145961013Y-108527194D01*
X145961014Y-108527196D01*
X146011622Y-108689606D01*
X146093158Y-108824483D01*
X146099630Y-108835188D01*
X146219911Y-108955469D01*
X146219913Y-108955470D01*
X146219915Y-108955472D01*
X146365494Y-109043478D01*
X146527904Y-109094086D01*
X146598484Y-109100500D01*
X146598487Y-109100500D01*
X147111713Y-109100500D01*
X147111716Y-109100500D01*
X147182296Y-109094086D01*
X147344706Y-109043478D01*
X147490285Y-108955472D01*
X147592773Y-108852983D01*
X147654094Y-108819499D01*
X147723785Y-108824483D01*
X147768134Y-108852984D01*
X147870222Y-108955072D01*
X148015704Y-109043019D01*
X148015703Y-109043019D01*
X148177994Y-109093590D01*
X148177993Y-109093590D01*
X148248508Y-109099998D01*
X148248526Y-109099999D01*
X148255099Y-109099998D01*
X148255100Y-109099998D01*
X148255100Y-107812140D01*
X148274785Y-107745101D01*
X148291419Y-107724459D01*
X148310316Y-107705562D01*
X148406289Y-107552822D01*
X148465868Y-107382555D01*
X148470663Y-107340000D01*
X148486065Y-107203303D01*
X148486065Y-107203296D01*
X148465869Y-107024050D01*
X148465868Y-107024045D01*
X148406288Y-106853776D01*
X148358702Y-106778044D01*
X148310316Y-106701038D01*
X148291419Y-106682141D01*
X148257934Y-106620818D01*
X148255100Y-106594460D01*
X148255100Y-106579000D01*
X148274785Y-106511961D01*
X148327589Y-106466206D01*
X148379100Y-106455000D01*
X148631100Y-106455000D01*
X148698139Y-106474685D01*
X148743894Y-106527489D01*
X148755100Y-106579000D01*
X148755100Y-109099999D01*
X148761681Y-109099999D01*
X148832202Y-109093591D01*
X148832207Y-109093590D01*
X148994496Y-109043018D01*
X149139977Y-108955072D01*
X149260172Y-108834877D01*
X149348119Y-108689395D01*
X149398690Y-108527105D01*
X149403728Y-108471666D01*
X149429398Y-108406682D01*
X149486125Y-108365893D01*
X149555900Y-108362248D01*
X149614900Y-108395205D01*
X149667267Y-108447572D01*
X149667271Y-108447575D01*
X149811507Y-108536542D01*
X149811518Y-108536547D01*
X149972393Y-108589855D01*
X150071683Y-108599999D01*
X150620000Y-108599999D01*
X150668308Y-108599999D01*
X150668322Y-108599998D01*
X150767607Y-108589855D01*
X150928481Y-108536547D01*
X150928492Y-108536542D01*
X151072728Y-108447575D01*
X151072732Y-108447572D01*
X151192572Y-108327732D01*
X151192575Y-108327728D01*
X151281542Y-108183492D01*
X151281547Y-108183481D01*
X151334855Y-108022607D01*
X151334883Y-108022340D01*
X151334946Y-108022183D01*
X151336273Y-108015988D01*
X151337377Y-108016224D01*
X151361271Y-107957645D01*
X151411784Y-107922164D01*
X151403354Y-107923377D01*
X151387190Y-107915995D01*
X151454691Y-107915995D01*
X151488257Y-107914615D01*
X151548538Y-107949941D01*
X151576627Y-107998035D01*
X151601981Y-108079397D01*
X151689927Y-108224877D01*
X151810122Y-108345072D01*
X151955604Y-108433019D01*
X151955603Y-108433019D01*
X152117894Y-108483590D01*
X152117892Y-108483590D01*
X152188418Y-108489999D01*
X152770000Y-108489999D01*
X152851581Y-108489999D01*
X152922102Y-108483591D01*
X152922107Y-108483590D01*
X153084396Y-108433018D01*
X153229877Y-108345072D01*
X153350072Y-108224877D01*
X153438019Y-108079395D01*
X153488590Y-107917106D01*
X153495000Y-107846572D01*
X153495000Y-107840000D01*
X152770000Y-107840000D01*
X152770000Y-108489999D01*
X152188418Y-108489999D01*
X152269999Y-108489998D01*
X152270000Y-108489998D01*
X152270000Y-107840000D01*
X151545001Y-107840000D01*
X151528638Y-107856362D01*
X151525316Y-107867678D01*
X151472512Y-107913433D01*
X151454691Y-107915995D01*
X151387190Y-107915995D01*
X151352165Y-107900000D01*
X150620000Y-107900000D01*
X150620000Y-108599999D01*
X150071683Y-108599999D01*
X150119999Y-108599998D01*
X150120000Y-108599998D01*
X150120000Y-107774000D01*
X150139685Y-107706961D01*
X150192489Y-107661206D01*
X150244000Y-107650000D01*
X150370000Y-107650000D01*
X150370000Y-107524000D01*
X150389685Y-107456961D01*
X150442489Y-107411206D01*
X150494000Y-107400000D01*
X151344999Y-107400000D01*
X151361361Y-107383637D01*
X151364684Y-107372322D01*
X151417488Y-107326567D01*
X151442984Y-107322901D01*
X151387139Y-107313930D01*
X151335097Y-107267311D01*
X151322797Y-107241003D01*
X151281548Y-107116520D01*
X151281542Y-107116507D01*
X151192575Y-106972271D01*
X151192572Y-106972267D01*
X151183339Y-106963034D01*
X151149854Y-106901711D01*
X151154838Y-106832019D01*
X151183343Y-106787668D01*
X151192968Y-106778044D01*
X151219887Y-106734402D01*
X151271835Y-106687678D01*
X151325425Y-106675500D01*
X151670188Y-106675500D01*
X151737227Y-106695185D01*
X151782982Y-106747989D01*
X151792926Y-106817147D01*
X151763901Y-106880703D01*
X151757869Y-106887181D01*
X151689928Y-106955121D01*
X151689927Y-106955122D01*
X151601981Y-107100603D01*
X151558888Y-107238891D01*
X151520150Y-107297039D01*
X151469772Y-107319049D01*
X151486646Y-107316623D01*
X151537835Y-107340000D01*
X153494999Y-107340000D01*
X153494999Y-107333417D01*
X153488591Y-107262897D01*
X153488590Y-107262892D01*
X153438018Y-107100603D01*
X153350072Y-106955122D01*
X153247984Y-106853034D01*
X153214499Y-106791711D01*
X153219483Y-106722019D01*
X153247983Y-106677673D01*
X153350472Y-106575185D01*
X153438478Y-106429606D01*
X153489086Y-106267196D01*
X153495500Y-106196616D01*
X153495500Y-105683384D01*
X153489086Y-105612804D01*
X153438478Y-105450394D01*
X153350472Y-105304815D01*
X153350470Y-105304813D01*
X153350469Y-105304811D01*
X153337539Y-105291881D01*
X153304054Y-105230558D01*
X153309038Y-105160866D01*
X153350910Y-105104933D01*
X153416374Y-105080516D01*
X153425220Y-105080200D01*
X154001064Y-105080200D01*
X154001066Y-105080200D01*
X154147435Y-105040981D01*
X154278665Y-104965215D01*
X154307061Y-104936819D01*
X154368384Y-104903334D01*
X154394742Y-104900500D01*
X154761613Y-104900500D01*
X154761616Y-104900500D01*
X154832196Y-104894086D01*
X154994606Y-104843478D01*
X155140185Y-104755472D01*
X155260472Y-104635185D01*
X155260474Y-104635180D01*
X155265094Y-104629285D01*
X155266117Y-104630087D01*
X155311904Y-104588160D01*
X155366489Y-104575500D01*
X155578132Y-104575500D01*
X155645171Y-104595185D01*
X155666346Y-104614383D01*
X155667181Y-104613549D01*
X155796346Y-104742714D01*
X155799182Y-104744463D01*
X155800717Y-104746170D01*
X155802011Y-104747193D01*
X155801836Y-104747414D01*
X155845905Y-104796411D01*
X155857126Y-104865374D01*
X155829282Y-104929456D01*
X155799182Y-104955537D01*
X155796346Y-104957285D01*
X155672289Y-105081342D01*
X155580187Y-105230663D01*
X155580185Y-105230668D01*
X155556542Y-105302019D01*
X155525001Y-105397203D01*
X155525001Y-105397204D01*
X155525000Y-105397204D01*
X155514500Y-105499983D01*
X155514500Y-106100001D01*
X155514501Y-106100019D01*
X155525000Y-106202796D01*
X155525001Y-106202799D01*
X155577478Y-106361163D01*
X155580186Y-106369334D01*
X155672288Y-106518656D01*
X155796344Y-106642712D01*
X155879653Y-106694097D01*
X155926376Y-106746044D01*
X155937775Y-106785751D01*
X155954630Y-106935350D01*
X155954631Y-106935354D01*
X156014211Y-107105623D01*
X156099277Y-107241003D01*
X156110184Y-107258362D01*
X156237738Y-107385916D01*
X156390478Y-107481889D01*
X156552197Y-107538477D01*
X156560745Y-107541468D01*
X156560750Y-107541469D01*
X156739996Y-107561665D01*
X156740000Y-107561665D01*
X156740004Y-107561665D01*
X156919249Y-107541469D01*
X156919252Y-107541468D01*
X156919255Y-107541468D01*
X157089522Y-107481889D01*
X157242262Y-107385916D01*
X157369816Y-107258362D01*
X157465789Y-107105622D01*
X157525368Y-106935355D01*
X157529170Y-106901616D01*
X157538687Y-106817147D01*
X157542224Y-106785750D01*
X157569290Y-106721337D01*
X157600343Y-106694099D01*
X157683656Y-106642712D01*
X157717819Y-106608549D01*
X157779142Y-106575064D01*
X157848834Y-106580048D01*
X157904767Y-106621920D01*
X157929184Y-106687384D01*
X157929500Y-106696230D01*
X157929500Y-113293101D01*
X157909815Y-113360140D01*
X157857011Y-113405895D01*
X157805500Y-113417101D01*
X130614500Y-113417101D01*
X130547461Y-113397416D01*
X130501706Y-113344612D01*
X130490500Y-113293101D01*
X130490500Y-110790375D01*
X131063600Y-110790375D01*
X131063600Y-111039624D01*
X131063601Y-111039641D01*
X131096134Y-111286756D01*
X131160649Y-111527529D01*
X131256031Y-111757804D01*
X131256038Y-111757819D01*
X131380667Y-111973683D01*
X131532407Y-112171434D01*
X131532413Y-112171441D01*
X131708658Y-112347686D01*
X131708665Y-112347692D01*
X131906416Y-112499432D01*
X132122280Y-112624061D01*
X132122295Y-112624068D01*
X132218848Y-112664061D01*
X132352571Y-112719451D01*
X132593340Y-112783965D01*
X132840469Y-112816500D01*
X132840476Y-112816500D01*
X133089724Y-112816500D01*
X133089731Y-112816500D01*
X133336860Y-112783965D01*
X133577629Y-112719451D01*
X133807916Y-112624063D01*
X134023784Y-112499432D01*
X134221536Y-112347691D01*
X134397791Y-112171436D01*
X134549532Y-111973684D01*
X134674163Y-111757816D01*
X134769551Y-111527529D01*
X134834065Y-111286760D01*
X134866600Y-111039631D01*
X134866600Y-110830375D01*
X153563600Y-110830375D01*
X153563600Y-111079624D01*
X153563601Y-111079641D01*
X153596134Y-111326756D01*
X153660649Y-111567529D01*
X153756031Y-111797804D01*
X153756038Y-111797819D01*
X153880667Y-112013683D01*
X154032407Y-112211434D01*
X154032413Y-112211441D01*
X154208658Y-112387686D01*
X154208665Y-112387692D01*
X154406416Y-112539432D01*
X154622280Y-112664061D01*
X154622295Y-112664068D01*
X154721535Y-112705174D01*
X154852571Y-112759451D01*
X155093340Y-112823965D01*
X155340469Y-112856500D01*
X155340476Y-112856500D01*
X155589724Y-112856500D01*
X155589731Y-112856500D01*
X155836860Y-112823965D01*
X156077629Y-112759451D01*
X156307916Y-112664063D01*
X156523784Y-112539432D01*
X156721536Y-112387691D01*
X156897791Y-112211436D01*
X157049532Y-112013684D01*
X157174163Y-111797816D01*
X157269551Y-111567529D01*
X157334065Y-111326760D01*
X157366600Y-111079631D01*
X157366600Y-110830369D01*
X157334065Y-110583240D01*
X157269551Y-110342471D01*
X157174163Y-110112184D01*
X157151075Y-110072195D01*
X157049532Y-109896316D01*
X156897792Y-109698565D01*
X156897786Y-109698558D01*
X156721541Y-109522313D01*
X156721534Y-109522307D01*
X156523783Y-109370567D01*
X156307919Y-109245938D01*
X156307904Y-109245931D01*
X156077629Y-109150549D01*
X155888974Y-109099999D01*
X155836860Y-109086035D01*
X155836859Y-109086034D01*
X155836856Y-109086034D01*
X155589741Y-109053501D01*
X155589736Y-109053500D01*
X155589731Y-109053500D01*
X155340469Y-109053500D01*
X155340463Y-109053500D01*
X155340458Y-109053501D01*
X155093343Y-109086034D01*
X154852570Y-109150549D01*
X154622295Y-109245931D01*
X154622280Y-109245938D01*
X154406416Y-109370567D01*
X154208665Y-109522307D01*
X154208658Y-109522313D01*
X154032413Y-109698558D01*
X154032407Y-109698565D01*
X153880667Y-109896316D01*
X153756038Y-110112180D01*
X153756031Y-110112195D01*
X153660649Y-110342470D01*
X153596134Y-110583243D01*
X153563601Y-110830358D01*
X153563600Y-110830375D01*
X134866600Y-110830375D01*
X134866600Y-110790369D01*
X134834065Y-110543240D01*
X134769551Y-110302471D01*
X134674163Y-110072184D01*
X134549532Y-109856316D01*
X134397791Y-109658564D01*
X134397786Y-109658558D01*
X134221541Y-109482313D01*
X134221534Y-109482307D01*
X134023783Y-109330567D01*
X133807919Y-109205938D01*
X133807904Y-109205931D01*
X133577629Y-109110549D01*
X133364723Y-109053501D01*
X133336860Y-109046035D01*
X133336859Y-109046034D01*
X133336856Y-109046034D01*
X133089741Y-109013501D01*
X133089736Y-109013500D01*
X133089731Y-109013500D01*
X132840469Y-109013500D01*
X132840463Y-109013500D01*
X132840458Y-109013501D01*
X132593343Y-109046034D01*
X132352570Y-109110549D01*
X132122295Y-109205931D01*
X132122280Y-109205938D01*
X131906416Y-109330567D01*
X131708665Y-109482307D01*
X131708658Y-109482313D01*
X131532413Y-109658558D01*
X131532407Y-109658565D01*
X131380667Y-109856316D01*
X131256038Y-110072180D01*
X131256031Y-110072195D01*
X131160649Y-110302470D01*
X131096134Y-110543243D01*
X131063601Y-110790358D01*
X131063600Y-110790375D01*
X130490500Y-110790375D01*
X130490500Y-106533641D01*
X130510185Y-106466602D01*
X130562989Y-106420847D01*
X130632147Y-106410903D01*
X130695703Y-106439928D01*
X130702181Y-106445960D01*
X130703281Y-106447060D01*
X130736766Y-106508383D01*
X130739600Y-106534741D01*
X130739600Y-106901613D01*
X130746013Y-106972192D01*
X130746013Y-106972194D01*
X130746014Y-106972196D01*
X130796622Y-107134606D01*
X130876845Y-107267311D01*
X130884630Y-107280188D01*
X131004911Y-107400469D01*
X131004913Y-107400470D01*
X131004915Y-107400472D01*
X131150494Y-107488478D01*
X131312904Y-107539086D01*
X131383484Y-107545500D01*
X131383487Y-107545500D01*
X132046713Y-107545500D01*
X132046716Y-107545500D01*
X132117296Y-107539086D01*
X132279706Y-107488478D01*
X132425285Y-107400472D01*
X132545572Y-107280185D01*
X132633578Y-107134606D01*
X132684186Y-106972196D01*
X132690600Y-106901616D01*
X132690600Y-106388384D01*
X132684186Y-106317804D01*
X132633578Y-106155394D01*
X132545572Y-106009815D01*
X132545570Y-106009813D01*
X132545569Y-106009811D01*
X132443439Y-105907681D01*
X132409954Y-105846358D01*
X132414938Y-105776666D01*
X132443439Y-105732319D01*
X132545568Y-105630189D01*
X132545569Y-105630188D01*
X132545572Y-105630185D01*
X132633578Y-105484606D01*
X132684186Y-105322196D01*
X132690600Y-105251616D01*
X132690600Y-104884740D01*
X132710285Y-104817701D01*
X132726914Y-104797064D01*
X134138255Y-103385722D01*
X134138260Y-103385719D01*
X134148463Y-103375515D01*
X134148465Y-103375515D01*
X134255615Y-103268365D01*
X134331381Y-103137135D01*
X134351147Y-103063366D01*
X134370600Y-102990767D01*
X134370600Y-102839234D01*
X134370600Y-99451847D01*
X134390285Y-99384808D01*
X134428627Y-99346854D01*
X134446644Y-99335534D01*
X134574198Y-99207980D01*
X134670171Y-99055240D01*
X134679079Y-99029780D01*
X134719798Y-98973006D01*
X134784750Y-98947256D01*
X134853312Y-98960710D01*
G37*
%TD.AperFunction*%
%TA.AperFunction,Conductor*%
G36*
X143994950Y-99255389D02*
G01*
X144030633Y-99315460D01*
X144034500Y-99346187D01*
X144034500Y-100075491D01*
X144026682Y-100118824D01*
X143978607Y-100247718D01*
X143972200Y-100307317D01*
X143972200Y-100307324D01*
X143972199Y-100307336D01*
X143972199Y-100932512D01*
X143952514Y-100999551D01*
X143933026Y-101020485D01*
X143934081Y-101021540D01*
X143921540Y-101034081D01*
X143919307Y-101031848D01*
X143875834Y-101064385D01*
X143832512Y-101072199D01*
X143560449Y-101072199D01*
X143493410Y-101052514D01*
X143455455Y-101014170D01*
X143421318Y-100959840D01*
X143293762Y-100832284D01*
X143141023Y-100736311D01*
X142970754Y-100676731D01*
X142970750Y-100676730D01*
X142871416Y-100665538D01*
X142807002Y-100638471D01*
X142767447Y-100580876D01*
X142761300Y-100542318D01*
X142761300Y-99634532D01*
X142758879Y-99625498D01*
X142758878Y-99625495D01*
X142722080Y-99488162D01*
X142702472Y-99454202D01*
X142685998Y-99386302D01*
X142708849Y-99320275D01*
X142763770Y-99277083D01*
X142809858Y-99268200D01*
X143723064Y-99268200D01*
X143723066Y-99268200D01*
X143869435Y-99228981D01*
X143869436Y-99228980D01*
X143877286Y-99226877D01*
X143878126Y-99230014D01*
X143932455Y-99224146D01*
X143994950Y-99255389D01*
G37*
%TD.AperFunction*%
%TA.AperFunction,Conductor*%
G36*
X140065784Y-96173988D02*
G01*
X140110131Y-96202489D01*
X140218111Y-96310469D01*
X140218113Y-96310470D01*
X140218115Y-96310472D01*
X140363694Y-96398478D01*
X140526104Y-96449086D01*
X140596684Y-96455500D01*
X140963558Y-96455500D01*
X141030597Y-96475185D01*
X141051239Y-96491819D01*
X141205781Y-96646361D01*
X141239266Y-96707684D01*
X141242100Y-96734042D01*
X141242100Y-97131640D01*
X141222415Y-97198679D01*
X141169611Y-97244434D01*
X141100453Y-97254378D01*
X141056100Y-97239027D01*
X140988538Y-97200020D01*
X140988535Y-97200019D01*
X140842166Y-97160800D01*
X139924767Y-97160800D01*
X139816100Y-97160800D01*
X139749061Y-97141115D01*
X139703306Y-97088311D01*
X139692100Y-97036800D01*
X139692100Y-96461828D01*
X139711785Y-96394789D01*
X139751951Y-96355711D01*
X139826783Y-96310474D01*
X139826786Y-96310471D01*
X139934769Y-96202489D01*
X139996092Y-96169004D01*
X140065784Y-96173988D01*
G37*
%TD.AperFunction*%
%TA.AperFunction,Conductor*%
G36*
X143957938Y-76377786D02*
G01*
X144003693Y-76430590D01*
X144013637Y-76499748D01*
X143984612Y-76563304D01*
X143967061Y-76579955D01*
X143926269Y-76611704D01*
X143764606Y-76787317D01*
X143634051Y-76987147D01*
X143538170Y-77205732D01*
X143479575Y-77437118D01*
X143479573Y-77437130D01*
X143459864Y-77674994D01*
X143459864Y-77675005D01*
X143479573Y-77912869D01*
X143479575Y-77912881D01*
X143538170Y-78144267D01*
X143611952Y-78312471D01*
X143634053Y-78362856D01*
X143764606Y-78562682D01*
X143926268Y-78738295D01*
X144114631Y-78884903D01*
X144264619Y-78966073D01*
X144314208Y-79015292D01*
X144329600Y-79075127D01*
X144329600Y-80464065D01*
X144368819Y-80610436D01*
X144401187Y-80666498D01*
X144444585Y-80741665D01*
X144444587Y-80741667D01*
X144815739Y-81112819D01*
X144849224Y-81174142D01*
X144844240Y-81243834D01*
X144802368Y-81299767D01*
X144736904Y-81324184D01*
X144728060Y-81324500D01*
X144667230Y-81324500D01*
X144667223Y-81324501D01*
X144607616Y-81330908D01*
X144472771Y-81381202D01*
X144472764Y-81381206D01*
X144357555Y-81467452D01*
X144357552Y-81467455D01*
X144271306Y-81582664D01*
X144271302Y-81582671D01*
X144221008Y-81717517D01*
X144214601Y-81777116D01*
X144214601Y-81777123D01*
X144214600Y-81777135D01*
X144214600Y-82633557D01*
X144194915Y-82700596D01*
X144178281Y-82721238D01*
X143702435Y-83197085D01*
X143595287Y-83304232D01*
X143595285Y-83304235D01*
X143519519Y-83435463D01*
X143480300Y-83581834D01*
X143480300Y-85650500D01*
X143460615Y-85717539D01*
X143407811Y-85763294D01*
X143356300Y-85774500D01*
X140667229Y-85774500D01*
X140667223Y-85774501D01*
X140607616Y-85780908D01*
X140472771Y-85831202D01*
X140472764Y-85831206D01*
X140357555Y-85917452D01*
X140357552Y-85917455D01*
X140271306Y-86032664D01*
X140271302Y-86032671D01*
X140221008Y-86167517D01*
X140214601Y-86227116D01*
X140214600Y-86227135D01*
X140214600Y-89122870D01*
X140214601Y-89122876D01*
X140221008Y-89182483D01*
X140271302Y-89317328D01*
X140271306Y-89317335D01*
X140357552Y-89432544D01*
X140357555Y-89432547D01*
X140472764Y-89518793D01*
X140472771Y-89518797D01*
X140607617Y-89569091D01*
X140607616Y-89569091D01*
X140614544Y-89569835D01*
X140667227Y-89575500D01*
X143356300Y-89575499D01*
X143423339Y-89595184D01*
X143469094Y-89647987D01*
X143480300Y-89699499D01*
X143480300Y-90487758D01*
X143460615Y-90554797D01*
X143443981Y-90575439D01*
X141051239Y-92968181D01*
X140989916Y-93001666D01*
X140963558Y-93004500D01*
X140596684Y-93004500D01*
X140577445Y-93006248D01*
X140526107Y-93010913D01*
X140363693Y-93061522D01*
X140218111Y-93149530D01*
X140218110Y-93149531D01*
X140110131Y-93257511D01*
X140048808Y-93290996D01*
X139979116Y-93286012D01*
X139934769Y-93257511D01*
X139826788Y-93149530D01*
X139751948Y-93104286D01*
X139704761Y-93052757D01*
X139692100Y-92998170D01*
X139692100Y-86285736D01*
X139692100Y-86285734D01*
X139652881Y-86139365D01*
X139577115Y-86008135D01*
X139469965Y-85900985D01*
X139076919Y-85507939D01*
X139043434Y-85446616D01*
X139040600Y-85420258D01*
X139040600Y-85043331D01*
X139040599Y-85043318D01*
X139030536Y-84944816D01*
X139030536Y-84944815D01*
X138977649Y-84785213D01*
X138977645Y-84785207D01*
X138977644Y-84785204D01*
X138889383Y-84642112D01*
X138889380Y-84642108D01*
X138857453Y-84610181D01*
X138823968Y-84548858D01*
X138828952Y-84479166D01*
X138857453Y-84434819D01*
X138889381Y-84402891D01*
X138977649Y-84259787D01*
X139030536Y-84100185D01*
X139040600Y-84001674D01*
X139040600Y-83468326D01*
X139030536Y-83369815D01*
X138977649Y-83210213D01*
X138977645Y-83210207D01*
X138977644Y-83210204D01*
X138889383Y-83067112D01*
X138889380Y-83067108D01*
X138770491Y-82948219D01*
X138770487Y-82948216D01*
X138627395Y-82859955D01*
X138627389Y-82859952D01*
X138627387Y-82859951D01*
X138467785Y-82807064D01*
X138467783Y-82807063D01*
X138369281Y-82797000D01*
X138369274Y-82797000D01*
X137932125Y-82797000D01*
X137874825Y-82781646D01*
X137874749Y-82781831D01*
X137873348Y-82781251D01*
X137870124Y-82780387D01*
X137867236Y-82778719D01*
X137794050Y-82759109D01*
X137720866Y-82739500D01*
X133304000Y-82739500D01*
X133236961Y-82719815D01*
X133191206Y-82667011D01*
X133180000Y-82615500D01*
X133180000Y-82482172D01*
X133179999Y-82482155D01*
X133173598Y-82422627D01*
X133173596Y-82422620D01*
X133123354Y-82287913D01*
X133123350Y-82287906D01*
X133037190Y-82172812D01*
X133037187Y-82172809D01*
X132922093Y-82086649D01*
X132922086Y-82086645D01*
X132787379Y-82036403D01*
X132787372Y-82036401D01*
X132727844Y-82030000D01*
X132430000Y-82030000D01*
X132430000Y-83022953D01*
X132413387Y-83084953D01*
X132408820Y-83092862D01*
X132408819Y-83092865D01*
X132369600Y-83239234D01*
X132369600Y-83390766D01*
X132406907Y-83530000D01*
X132408820Y-83537137D01*
X132408820Y-83537138D01*
X132413385Y-83545044D01*
X132430000Y-83607047D01*
X132430000Y-84530000D01*
X132727828Y-84530000D01*
X132727844Y-84529999D01*
X132787372Y-84523598D01*
X132787379Y-84523596D01*
X132922086Y-84473354D01*
X132922093Y-84473350D01*
X133037187Y-84387190D01*
X133037190Y-84387187D01*
X133123350Y-84272093D01*
X133123354Y-84272086D01*
X133173596Y-84137379D01*
X133173598Y-84137372D01*
X133179999Y-84077844D01*
X133180000Y-84077827D01*
X133180000Y-84014500D01*
X133199685Y-83947461D01*
X133252489Y-83901706D01*
X133304000Y-83890500D01*
X136966265Y-83890500D01*
X137033304Y-83910185D01*
X137079059Y-83962989D01*
X137089623Y-84001898D01*
X137099663Y-84100182D01*
X137099664Y-84100185D01*
X137111987Y-84137372D01*
X137152550Y-84259784D01*
X137152555Y-84259795D01*
X137240816Y-84402887D01*
X137240819Y-84402891D01*
X137272747Y-84434819D01*
X137306232Y-84496142D01*
X137301248Y-84565834D01*
X137272747Y-84610181D01*
X137240819Y-84642108D01*
X137240816Y-84642112D01*
X137152555Y-84785204D01*
X137152551Y-84785213D01*
X137099664Y-84944815D01*
X137099664Y-84944816D01*
X137099663Y-84944816D01*
X137089600Y-85043318D01*
X137089600Y-85576681D01*
X137099663Y-85675183D01*
X137152550Y-85834784D01*
X137152555Y-85834795D01*
X137240816Y-85977887D01*
X137240819Y-85977891D01*
X137359708Y-86096780D01*
X137359712Y-86096783D01*
X137502804Y-86185044D01*
X137502807Y-86185045D01*
X137502813Y-86185049D01*
X137662415Y-86237936D01*
X137760926Y-86248000D01*
X138137858Y-86248000D01*
X138204897Y-86267685D01*
X138225539Y-86284319D01*
X138504781Y-86563561D01*
X138538266Y-86624884D01*
X138541100Y-86651242D01*
X138541100Y-92998170D01*
X138521415Y-93065209D01*
X138481252Y-93104286D01*
X138406411Y-93149530D01*
X138286130Y-93269811D01*
X138198122Y-93415393D01*
X138147513Y-93577807D01*
X138141100Y-93648386D01*
X138141100Y-94161613D01*
X138147513Y-94232192D01*
X138147513Y-94232194D01*
X138147514Y-94232196D01*
X138198122Y-94394606D01*
X138283105Y-94535185D01*
X138286130Y-94540188D01*
X138388261Y-94642319D01*
X138421746Y-94703642D01*
X138416762Y-94773334D01*
X138388261Y-94817681D01*
X138286131Y-94919810D01*
X138281506Y-94925715D01*
X138280482Y-94924912D01*
X138234696Y-94966840D01*
X138180111Y-94979500D01*
X133314842Y-94979500D01*
X133247803Y-94959815D01*
X133227161Y-94943181D01*
X133164920Y-94880940D01*
X133131435Y-94819617D01*
X133132396Y-94762818D01*
X133190622Y-94532890D01*
X133190622Y-94532889D01*
X133190625Y-94532878D01*
X133200559Y-94412995D01*
X133210336Y-94295005D01*
X133210336Y-94294994D01*
X133190626Y-94057130D01*
X133190624Y-94057118D01*
X133132029Y-93825732D01*
X133054237Y-93648386D01*
X133036147Y-93607144D01*
X132905594Y-93407318D01*
X132743932Y-93231705D01*
X132604078Y-93122853D01*
X132563266Y-93066143D01*
X132559591Y-92996370D01*
X132594222Y-92935687D01*
X132604079Y-92927146D01*
X132743932Y-92818295D01*
X132905594Y-92642682D01*
X133036147Y-92442856D01*
X133132029Y-92224267D01*
X133190625Y-91992878D01*
X133210336Y-91755000D01*
X133205809Y-91700369D01*
X133190626Y-91517130D01*
X133190624Y-91517118D01*
X133132029Y-91285732D01*
X133048039Y-91094255D01*
X133036147Y-91067144D01*
X132905594Y-90867318D01*
X132743932Y-90691705D01*
X132603671Y-90582536D01*
X132562859Y-90525826D01*
X132559184Y-90456053D01*
X132593815Y-90395370D01*
X132603672Y-90386829D01*
X132743592Y-90277925D01*
X132743595Y-90277922D01*
X132905192Y-90102383D01*
X132905200Y-90102372D01*
X133035706Y-89902619D01*
X133131555Y-89684103D01*
X133187040Y-89465000D01*
X132111510Y-89465000D01*
X132161137Y-89379044D01*
X132190100Y-89270952D01*
X132190100Y-89159048D01*
X132161137Y-89050956D01*
X132111510Y-88965000D01*
X133187040Y-88965000D01*
X133131555Y-88745896D01*
X133035706Y-88527380D01*
X132905200Y-88327627D01*
X132905192Y-88327616D01*
X132743595Y-88152077D01*
X132743585Y-88152068D01*
X132555298Y-88005518D01*
X132555289Y-88005512D01*
X132345449Y-87891953D01*
X132345439Y-87891948D01*
X132119763Y-87814474D01*
X132015100Y-87797009D01*
X132015100Y-88868590D01*
X131929144Y-88818963D01*
X131821052Y-88790000D01*
X131709148Y-88790000D01*
X131601056Y-88818963D01*
X131515100Y-88868590D01*
X131515100Y-87797009D01*
X131515099Y-87797009D01*
X131410436Y-87814474D01*
X131184760Y-87891948D01*
X131184750Y-87891953D01*
X130974910Y-88005512D01*
X130974901Y-88005518D01*
X130786614Y-88152068D01*
X130786610Y-88152072D01*
X130705729Y-88239931D01*
X130645842Y-88275921D01*
X130576004Y-88273820D01*
X130518388Y-88234295D01*
X130491287Y-88169896D01*
X130490500Y-88155947D01*
X130490500Y-84077844D01*
X131180000Y-84077844D01*
X131186401Y-84137372D01*
X131186403Y-84137379D01*
X131236645Y-84272086D01*
X131236649Y-84272093D01*
X131322809Y-84387187D01*
X131322812Y-84387190D01*
X131437906Y-84473350D01*
X131437913Y-84473354D01*
X131572620Y-84523596D01*
X131572627Y-84523598D01*
X131632155Y-84529999D01*
X131632172Y-84530000D01*
X131930000Y-84530000D01*
X131930000Y-83530000D01*
X131180000Y-83530000D01*
X131180000Y-84077844D01*
X130490500Y-84077844D01*
X130490500Y-82482155D01*
X131180000Y-82482155D01*
X131180000Y-83030000D01*
X131930000Y-83030000D01*
X131930000Y-82030000D01*
X131632155Y-82030000D01*
X131572627Y-82036401D01*
X131572620Y-82036403D01*
X131437913Y-82086645D01*
X131437906Y-82086649D01*
X131322812Y-82172809D01*
X131322809Y-82172812D01*
X131236649Y-82287906D01*
X131236645Y-82287913D01*
X131186403Y-82422620D01*
X131186401Y-82422627D01*
X131180000Y-82482155D01*
X130490500Y-82482155D01*
X130490500Y-78800375D01*
X131133600Y-78800375D01*
X131133600Y-79049624D01*
X131133601Y-79049641D01*
X131166134Y-79296756D01*
X131230649Y-79537529D01*
X131326031Y-79767804D01*
X131326038Y-79767819D01*
X131450667Y-79983683D01*
X131602407Y-80181434D01*
X131602413Y-80181441D01*
X131778658Y-80357686D01*
X131778665Y-80357692D01*
X131976416Y-80509432D01*
X132192280Y-80634061D01*
X132192295Y-80634068D01*
X132270589Y-80666498D01*
X132422571Y-80729451D01*
X132663340Y-80793965D01*
X132910469Y-80826500D01*
X132910476Y-80826500D01*
X133159724Y-80826500D01*
X133159731Y-80826500D01*
X133406860Y-80793965D01*
X133647629Y-80729451D01*
X133877916Y-80634063D01*
X134093784Y-80509432D01*
X134291536Y-80357691D01*
X134467791Y-80181436D01*
X134619532Y-79983684D01*
X134744163Y-79767816D01*
X134839551Y-79537529D01*
X134904065Y-79296760D01*
X134936600Y-79049631D01*
X134936600Y-78800369D01*
X134904065Y-78553240D01*
X134839551Y-78312471D01*
X134773277Y-78152471D01*
X134744168Y-78082195D01*
X134744161Y-78082180D01*
X134619532Y-77866316D01*
X134467792Y-77668565D01*
X134467786Y-77668558D01*
X134291541Y-77492313D01*
X134291534Y-77492307D01*
X134093783Y-77340567D01*
X133877919Y-77215938D01*
X133877904Y-77215931D01*
X133647629Y-77120549D01*
X133406856Y-77056034D01*
X133159741Y-77023501D01*
X133159736Y-77023500D01*
X133159731Y-77023500D01*
X132910469Y-77023500D01*
X132910463Y-77023500D01*
X132910458Y-77023501D01*
X132663343Y-77056034D01*
X132422570Y-77120549D01*
X132192295Y-77215931D01*
X132192280Y-77215938D01*
X131976416Y-77340567D01*
X131778665Y-77492307D01*
X131778658Y-77492313D01*
X131602413Y-77668558D01*
X131602407Y-77668565D01*
X131450667Y-77866316D01*
X131326038Y-78082180D01*
X131326031Y-78082195D01*
X131230649Y-78312470D01*
X131166134Y-78553243D01*
X131133601Y-78800358D01*
X131133600Y-78800375D01*
X130490500Y-78800375D01*
X130490500Y-76482101D01*
X130510185Y-76415062D01*
X130562989Y-76369307D01*
X130614500Y-76358101D01*
X143890899Y-76358101D01*
X143957938Y-76377786D01*
G37*
%TD.AperFunction*%
%TD*%
D30*
X142450700Y-102710000D03*
X156740000Y-106756100D03*
X147680500Y-107203300D03*
X152948200Y-103866900D03*
X133944382Y-98705718D03*
X131936800Y-103768900D03*
X142791500Y-101462100D03*
X151005100Y-100805000D03*
X152895100Y-83315000D03*
X148795100Y-90915000D03*
X144370862Y-106048600D03*
X144016600Y-104602800D03*
X145108400Y-105523600D03*
X136233600Y-100921400D03*
X149507100Y-100894300D03*
X155535100Y-78765000D03*
X131765100Y-89215000D03*
X131765100Y-91755000D03*
X131765100Y-94295000D03*
X131765100Y-96835000D03*
X131765100Y-99375000D03*
X131765100Y-101915000D03*
X133035100Y-78925000D03*
X154415100Y-86925000D03*
X147415100Y-86925000D03*
X144905100Y-77675000D03*
X147445100Y-77675000D03*
X149985100Y-77675000D03*
X132965100Y-110915000D03*
X155465100Y-110955000D03*
M02*
