%TF.GenerationSoftware,KiCad,Pcbnew,8.0.8*%
%TF.CreationDate,2025-02-23T18:34:37+05:30*%
%TF.ProjectId,my-template,6d792d74-656d-4706-9c61-74652e6b6963,rev?*%
%TF.SameCoordinates,Original*%
%TF.FileFunction,Copper,L2,Bot*%
%TF.FilePolarity,Positive*%
%FSLAX46Y46*%
G04 Gerber Fmt 4.6, Leading zero omitted, Abs format (unit mm)*
G04 Created by KiCad (PCBNEW 8.0.8) date 2025-02-23 18:34:37*
%MOMM*%
%LPD*%
G01*
G04 APERTURE LIST*
%TA.AperFunction,ComponentPad*%
%ADD10C,1.879600*%
%TD*%
%TA.AperFunction,ViaPad*%
%ADD11C,0.600000*%
%TD*%
%TA.AperFunction,Conductor*%
%ADD12C,0.150000*%
%TD*%
%ADD13C,0.350000*%
G04 APERTURE END LIST*
D10*
%TO.P,J3,1,Pin_1*%
%TO.N,GND*%
X131765100Y-89215000D03*
%TO.P,J3,2,Pin_2*%
%TO.N,+3V3*%
X131765100Y-91755000D03*
%TO.P,J3,3,Pin_3*%
%TO.N,/SIGNAL_OUT*%
X131765100Y-94295000D03*
%TO.P,J3,4,Pin_4*%
%TO.N,/LO-*%
X131765100Y-96835000D03*
%TO.P,J3,5,Pin_5*%
%TO.N,/LO+*%
X131765100Y-99375000D03*
%TO.P,J3,6,Pin_6*%
%TO.N,/SDN*%
X131765100Y-101915000D03*
%TD*%
%TO.P,J1,1,Pin_1*%
%TO.N,/RL*%
X144905100Y-77675000D03*
%TO.P,J1,2,Pin_2*%
%TO.N,/LA*%
X147445100Y-77675000D03*
%TO.P,J1,3,Pin_3*%
%TO.N,/RA*%
X149985100Y-77675000D03*
%TD*%
D11*
%TO.N,/REFOUT*%
X142450700Y-102710000D03*
X156740000Y-106756100D03*
%TO.N,+3V3*%
X147680500Y-107203300D03*
X152948200Y-103866900D03*
X133944382Y-98705718D03*
X131936800Y-103768900D03*
%TO.N,/SW*%
X142791500Y-101462100D03*
X151005100Y-100805000D03*
%TO.N,/RA*%
X152895100Y-83315000D03*
X148795100Y-90915000D03*
%TO.N,/SDN*%
X144370862Y-106048600D03*
%TO.N,/LO-*%
X144016600Y-104602800D03*
%TO.N,/LO+*%
X145108400Y-105523600D03*
%TO.N,/IAOUT*%
X136233600Y-100921400D03*
X149507100Y-100894300D03*
%TD*%
D12*
%TO.N,/REFOUT*%
X142450700Y-102710000D02*
X142659300Y-102918600D01*
X152902500Y-102918600D02*
X156740000Y-106756100D01*
X142659300Y-102918600D02*
X152902500Y-102918600D01*
%TO.N,+3V3*%
X149611800Y-107203300D02*
X147680500Y-107203300D01*
X152948200Y-103866900D02*
X149611800Y-107203300D01*
X133945100Y-93935000D02*
X133945100Y-94975000D01*
X131765100Y-91755000D02*
X133945100Y-93935000D01*
X133945100Y-94975000D02*
X133945100Y-97495000D01*
X147680500Y-107203300D02*
X135371200Y-107203300D01*
X133945100Y-97495000D02*
X133945100Y-98705000D01*
X133945100Y-98705000D02*
X133944382Y-98705718D01*
X135371200Y-107203300D02*
X131936800Y-103768900D01*
%TO.N,/SW*%
X151005100Y-100805000D02*
X149418200Y-102391900D01*
X143721300Y-102391900D02*
X142791500Y-101462100D01*
X149418200Y-102391900D02*
X143721300Y-102391900D01*
%TO.N,/RA*%
X148795100Y-90915000D02*
X152895100Y-86815000D01*
X152895100Y-86815000D02*
X152895100Y-83315000D01*
%TO.N,/SDN*%
X144139962Y-106279500D02*
X136129600Y-106279500D01*
X144370862Y-106048600D02*
X144139962Y-106279500D01*
X136129600Y-106279500D02*
X131765100Y-101915000D01*
%TO.N,/LO-*%
X131765100Y-97268900D02*
X139099000Y-104602800D01*
X131765100Y-96835000D02*
X131765100Y-97268900D01*
X139099000Y-104602800D02*
X144016600Y-104602800D01*
%TO.N,/LO+*%
X137913700Y-105523600D02*
X131765100Y-99375000D01*
X145108400Y-105523600D02*
X137913700Y-105523600D01*
%TO.N,/IAOUT*%
X149507100Y-100894300D02*
X136260700Y-100894300D01*
X136260700Y-100894300D02*
X136233600Y-100921400D01*
%TD*%
%TA.AperFunction,Conductor*%
%TO.N,GND*%
G36*
X143957938Y-76377786D02*
G01*
X144003693Y-76430590D01*
X144013637Y-76499748D01*
X143984612Y-76563304D01*
X143967061Y-76579955D01*
X143926269Y-76611704D01*
X143764606Y-76787317D01*
X143634051Y-76987147D01*
X143538170Y-77205732D01*
X143479575Y-77437118D01*
X143479573Y-77437130D01*
X143459864Y-77674994D01*
X143459864Y-77675005D01*
X143479573Y-77912869D01*
X143479575Y-77912881D01*
X143538170Y-78144267D01*
X143611952Y-78312471D01*
X143634053Y-78362856D01*
X143764606Y-78562682D01*
X143926268Y-78738295D01*
X144114631Y-78884903D01*
X144324555Y-78998509D01*
X144550316Y-79076012D01*
X144785753Y-79115300D01*
X144785754Y-79115300D01*
X145024446Y-79115300D01*
X145024447Y-79115300D01*
X145259884Y-79076012D01*
X145485645Y-78998509D01*
X145695569Y-78884903D01*
X145883932Y-78738295D01*
X146045594Y-78562682D01*
X146071291Y-78523350D01*
X146124437Y-78477993D01*
X146193668Y-78468569D01*
X146257004Y-78498071D01*
X146278909Y-78523350D01*
X146304606Y-78562682D01*
X146466268Y-78738295D01*
X146654631Y-78884903D01*
X146864555Y-78998509D01*
X147090316Y-79076012D01*
X147325753Y-79115300D01*
X147325754Y-79115300D01*
X147564446Y-79115300D01*
X147564447Y-79115300D01*
X147799884Y-79076012D01*
X148025645Y-78998509D01*
X148235569Y-78884903D01*
X148423932Y-78738295D01*
X148585594Y-78562682D01*
X148611291Y-78523350D01*
X148664437Y-78477993D01*
X148733668Y-78468569D01*
X148797004Y-78498071D01*
X148818909Y-78523350D01*
X148844606Y-78562682D01*
X149006268Y-78738295D01*
X149194631Y-78884903D01*
X149404555Y-78998509D01*
X149630316Y-79076012D01*
X149865753Y-79115300D01*
X149865754Y-79115300D01*
X150104446Y-79115300D01*
X150104447Y-79115300D01*
X150339884Y-79076012D01*
X150565645Y-78998509D01*
X150775569Y-78884903D01*
X150963932Y-78738295D01*
X151054073Y-78640375D01*
X153633600Y-78640375D01*
X153633600Y-78889624D01*
X153633601Y-78889641D01*
X153666134Y-79136756D01*
X153730649Y-79377529D01*
X153826031Y-79607804D01*
X153826038Y-79607819D01*
X153950667Y-79823683D01*
X154102407Y-80021434D01*
X154102413Y-80021441D01*
X154278658Y-80197686D01*
X154278665Y-80197692D01*
X154476416Y-80349432D01*
X154692280Y-80474061D01*
X154692295Y-80474068D01*
X154777672Y-80509432D01*
X154922571Y-80569451D01*
X155163340Y-80633965D01*
X155410469Y-80666500D01*
X155410476Y-80666500D01*
X155659724Y-80666500D01*
X155659731Y-80666500D01*
X155906860Y-80633965D01*
X156147629Y-80569451D01*
X156377916Y-80474063D01*
X156593784Y-80349432D01*
X156791536Y-80197691D01*
X156967791Y-80021436D01*
X157119532Y-79823684D01*
X157244163Y-79607816D01*
X157339551Y-79377529D01*
X157404065Y-79136760D01*
X157436600Y-78889631D01*
X157436600Y-78640369D01*
X157404065Y-78393240D01*
X157339551Y-78152471D01*
X157244163Y-77922184D01*
X157119532Y-77706316D01*
X156967791Y-77508564D01*
X156967786Y-77508558D01*
X156791541Y-77332313D01*
X156791534Y-77332307D01*
X156593783Y-77180567D01*
X156377919Y-77055938D01*
X156377904Y-77055931D01*
X156147629Y-76960549D01*
X155906856Y-76896034D01*
X155659741Y-76863501D01*
X155659736Y-76863500D01*
X155659731Y-76863500D01*
X155410469Y-76863500D01*
X155410463Y-76863500D01*
X155410458Y-76863501D01*
X155163343Y-76896034D01*
X154922570Y-76960549D01*
X154692295Y-77055931D01*
X154692280Y-77055938D01*
X154476416Y-77180567D01*
X154278665Y-77332307D01*
X154278658Y-77332313D01*
X154102413Y-77508558D01*
X154102407Y-77508565D01*
X153950667Y-77706316D01*
X153826038Y-77922180D01*
X153826031Y-77922195D01*
X153730649Y-78152470D01*
X153666134Y-78393243D01*
X153633601Y-78640358D01*
X153633600Y-78640375D01*
X151054073Y-78640375D01*
X151125594Y-78562682D01*
X151256147Y-78362856D01*
X151352029Y-78144267D01*
X151410625Y-77912878D01*
X151430336Y-77675000D01*
X151429802Y-77668558D01*
X151410626Y-77437130D01*
X151410624Y-77437118D01*
X151352029Y-77205732D01*
X151286320Y-77055931D01*
X151256147Y-76987144D01*
X151125594Y-76787318D01*
X150963932Y-76611705D01*
X150923138Y-76579954D01*
X150882326Y-76523244D01*
X150878651Y-76453471D01*
X150913282Y-76392788D01*
X150975224Y-76360461D01*
X150999301Y-76358101D01*
X157805500Y-76358101D01*
X157872539Y-76377786D01*
X157918294Y-76430590D01*
X157929500Y-76482101D01*
X157929500Y-113293101D01*
X157909815Y-113360140D01*
X157857011Y-113405895D01*
X157805500Y-113417101D01*
X130614500Y-113417101D01*
X130547461Y-113397416D01*
X130501706Y-113344612D01*
X130490500Y-113293101D01*
X130490500Y-110790375D01*
X131063600Y-110790375D01*
X131063600Y-111039624D01*
X131063601Y-111039641D01*
X131096134Y-111286756D01*
X131160649Y-111527529D01*
X131256031Y-111757804D01*
X131256038Y-111757819D01*
X131380667Y-111973683D01*
X131532407Y-112171434D01*
X131532413Y-112171441D01*
X131708658Y-112347686D01*
X131708665Y-112347692D01*
X131906416Y-112499432D01*
X132122280Y-112624061D01*
X132122295Y-112624068D01*
X132218848Y-112664061D01*
X132352571Y-112719451D01*
X132593340Y-112783965D01*
X132840469Y-112816500D01*
X132840476Y-112816500D01*
X133089724Y-112816500D01*
X133089731Y-112816500D01*
X133336860Y-112783965D01*
X133577629Y-112719451D01*
X133807916Y-112624063D01*
X134023784Y-112499432D01*
X134221536Y-112347691D01*
X134397791Y-112171436D01*
X134549532Y-111973684D01*
X134674163Y-111757816D01*
X134769551Y-111527529D01*
X134834065Y-111286760D01*
X134866600Y-111039631D01*
X134866600Y-110830375D01*
X153563600Y-110830375D01*
X153563600Y-111079624D01*
X153563601Y-111079641D01*
X153596134Y-111326756D01*
X153660649Y-111567529D01*
X153756031Y-111797804D01*
X153756038Y-111797819D01*
X153880667Y-112013683D01*
X154032407Y-112211434D01*
X154032413Y-112211441D01*
X154208658Y-112387686D01*
X154208665Y-112387692D01*
X154406416Y-112539432D01*
X154622280Y-112664061D01*
X154622295Y-112664068D01*
X154721535Y-112705174D01*
X154852571Y-112759451D01*
X155093340Y-112823965D01*
X155340469Y-112856500D01*
X155340476Y-112856500D01*
X155589724Y-112856500D01*
X155589731Y-112856500D01*
X155836860Y-112823965D01*
X156077629Y-112759451D01*
X156307916Y-112664063D01*
X156523784Y-112539432D01*
X156721536Y-112387691D01*
X156897791Y-112211436D01*
X157049532Y-112013684D01*
X157174163Y-111797816D01*
X157269551Y-111567529D01*
X157334065Y-111326760D01*
X157366600Y-111079631D01*
X157366600Y-110830369D01*
X157334065Y-110583240D01*
X157269551Y-110342471D01*
X157174163Y-110112184D01*
X157151075Y-110072195D01*
X157049532Y-109896316D01*
X156897792Y-109698565D01*
X156897786Y-109698558D01*
X156721541Y-109522313D01*
X156721534Y-109522307D01*
X156523783Y-109370567D01*
X156307919Y-109245938D01*
X156307904Y-109245931D01*
X156077629Y-109150549D01*
X155836856Y-109086034D01*
X155589741Y-109053501D01*
X155589736Y-109053500D01*
X155589731Y-109053500D01*
X155340469Y-109053500D01*
X155340463Y-109053500D01*
X155340458Y-109053501D01*
X155093343Y-109086034D01*
X154852570Y-109150549D01*
X154622295Y-109245931D01*
X154622280Y-109245938D01*
X154406416Y-109370567D01*
X154208665Y-109522307D01*
X154208658Y-109522313D01*
X154032413Y-109698558D01*
X154032407Y-109698565D01*
X153880667Y-109896316D01*
X153756038Y-110112180D01*
X153756031Y-110112195D01*
X153660649Y-110342470D01*
X153596134Y-110583243D01*
X153563601Y-110830358D01*
X153563600Y-110830375D01*
X134866600Y-110830375D01*
X134866600Y-110790369D01*
X134834065Y-110543240D01*
X134769551Y-110302471D01*
X134674163Y-110072184D01*
X134549532Y-109856316D01*
X134397791Y-109658564D01*
X134397786Y-109658558D01*
X134221541Y-109482313D01*
X134221534Y-109482307D01*
X134023783Y-109330567D01*
X133807919Y-109205938D01*
X133807904Y-109205931D01*
X133577629Y-109110549D01*
X133364723Y-109053501D01*
X133336860Y-109046035D01*
X133336859Y-109046034D01*
X133336856Y-109046034D01*
X133089741Y-109013501D01*
X133089736Y-109013500D01*
X133089731Y-109013500D01*
X132840469Y-109013500D01*
X132840463Y-109013500D01*
X132840458Y-109013501D01*
X132593343Y-109046034D01*
X132352570Y-109110549D01*
X132122295Y-109205931D01*
X132122280Y-109205938D01*
X131906416Y-109330567D01*
X131708665Y-109482307D01*
X131708658Y-109482313D01*
X131532413Y-109658558D01*
X131532407Y-109658565D01*
X131380667Y-109856316D01*
X131256038Y-110072180D01*
X131256031Y-110072195D01*
X131160649Y-110302470D01*
X131096134Y-110543243D01*
X131063601Y-110790358D01*
X131063600Y-110790375D01*
X130490500Y-110790375D01*
X130490500Y-102974789D01*
X130510185Y-102907750D01*
X130562989Y-102861995D01*
X130632147Y-102852051D01*
X130695703Y-102881076D01*
X130705723Y-102890799D01*
X130786268Y-102978295D01*
X130974630Y-103124902D01*
X130974637Y-103124907D01*
X131172727Y-103232109D01*
X131222317Y-103281328D01*
X131237425Y-103349545D01*
X131218706Y-103407130D01*
X131211009Y-103419379D01*
X131151433Y-103589637D01*
X131151430Y-103589650D01*
X131131235Y-103768896D01*
X131131235Y-103768903D01*
X131151430Y-103948149D01*
X131151431Y-103948154D01*
X131211011Y-104118423D01*
X131295745Y-104253276D01*
X131306984Y-104271162D01*
X131434538Y-104398716D01*
X131587278Y-104494689D01*
X131757545Y-104554268D01*
X131757550Y-104554269D01*
X131884312Y-104568551D01*
X131948726Y-104595617D01*
X131958110Y-104604090D01*
X135017835Y-107663815D01*
X135149065Y-107739581D01*
X135295433Y-107778800D01*
X135295434Y-107778800D01*
X147072560Y-107778800D01*
X147139599Y-107798485D01*
X147160241Y-107815119D01*
X147178238Y-107833116D01*
X147330978Y-107929089D01*
X147501245Y-107988668D01*
X147501250Y-107988669D01*
X147680496Y-108008865D01*
X147680500Y-108008865D01*
X147680504Y-108008865D01*
X147859749Y-107988669D01*
X147859752Y-107988668D01*
X147859755Y-107988668D01*
X148030022Y-107929089D01*
X148182762Y-107833116D01*
X148200759Y-107815119D01*
X148262082Y-107781634D01*
X148288440Y-107778800D01*
X149687564Y-107778800D01*
X149687566Y-107778800D01*
X149833935Y-107739581D01*
X149965165Y-107663815D01*
X152926890Y-104702088D01*
X152988211Y-104668605D01*
X153000683Y-104666551D01*
X153025410Y-104663765D01*
X153127450Y-104652269D01*
X153127453Y-104652268D01*
X153127455Y-104652268D01*
X153297722Y-104592689D01*
X153450462Y-104496716D01*
X153470918Y-104476260D01*
X153532241Y-104442775D01*
X153601933Y-104447759D01*
X153646280Y-104476260D01*
X155904808Y-106734788D01*
X155938293Y-106796111D01*
X155940347Y-106808585D01*
X155954630Y-106935349D01*
X156014210Y-107105621D01*
X156110184Y-107258362D01*
X156237738Y-107385916D01*
X156390478Y-107481889D01*
X156560745Y-107541468D01*
X156560750Y-107541469D01*
X156739996Y-107561665D01*
X156740000Y-107561665D01*
X156740004Y-107561665D01*
X156919249Y-107541469D01*
X156919252Y-107541468D01*
X156919255Y-107541468D01*
X157089522Y-107481889D01*
X157242262Y-107385916D01*
X157369816Y-107258362D01*
X157465789Y-107105622D01*
X157525368Y-106935355D01*
X157525369Y-106935349D01*
X157545565Y-106756103D01*
X157545565Y-106756096D01*
X157525369Y-106576850D01*
X157525368Y-106576845D01*
X157493633Y-106486153D01*
X157465789Y-106406578D01*
X157369816Y-106253838D01*
X157242262Y-106126284D01*
X157089521Y-106030310D01*
X156919249Y-105970730D01*
X156792485Y-105956447D01*
X156728071Y-105929380D01*
X156718688Y-105920908D01*
X153255867Y-102458087D01*
X153255865Y-102458085D01*
X153190250Y-102420202D01*
X153124636Y-102382319D01*
X153043115Y-102360476D01*
X152978266Y-102343100D01*
X152978265Y-102343100D01*
X150580242Y-102343100D01*
X150513203Y-102323415D01*
X150467448Y-102270611D01*
X150457504Y-102201453D01*
X150486529Y-102137897D01*
X150492561Y-102131419D01*
X150606674Y-102017306D01*
X150983790Y-101640188D01*
X151045111Y-101606705D01*
X151057583Y-101604651D01*
X151082310Y-101601865D01*
X151184350Y-101590369D01*
X151184353Y-101590368D01*
X151184355Y-101590368D01*
X151354622Y-101530789D01*
X151507362Y-101434816D01*
X151634916Y-101307262D01*
X151730889Y-101154522D01*
X151790468Y-100984255D01*
X151791727Y-100973083D01*
X151810665Y-100805003D01*
X151810665Y-100804996D01*
X151790469Y-100625750D01*
X151790468Y-100625745D01*
X151730888Y-100455476D01*
X151645008Y-100318800D01*
X151634916Y-100302738D01*
X151507362Y-100175184D01*
X151445052Y-100136032D01*
X151354623Y-100079211D01*
X151184354Y-100019631D01*
X151184349Y-100019630D01*
X151005104Y-99999435D01*
X151005096Y-99999435D01*
X150825850Y-100019630D01*
X150825845Y-100019631D01*
X150655576Y-100079211D01*
X150502837Y-100175184D01*
X150375282Y-100302739D01*
X150331569Y-100372309D01*
X150279235Y-100418599D01*
X150210181Y-100429247D01*
X150146333Y-100400872D01*
X150138895Y-100394017D01*
X150009362Y-100264484D01*
X149856623Y-100168511D01*
X149686354Y-100108931D01*
X149686349Y-100108930D01*
X149507104Y-100088735D01*
X149507096Y-100088735D01*
X149327850Y-100108930D01*
X149327845Y-100108931D01*
X149157576Y-100168511D01*
X149004837Y-100264484D01*
X148986841Y-100282481D01*
X148925518Y-100315966D01*
X148899160Y-100318800D01*
X136813379Y-100318800D01*
X136746340Y-100299115D01*
X136736066Y-100291746D01*
X136735867Y-100291587D01*
X136583123Y-100195611D01*
X136412854Y-100136031D01*
X136412849Y-100136030D01*
X136233604Y-100115835D01*
X136233596Y-100115835D01*
X136054350Y-100136030D01*
X136054345Y-100136031D01*
X135884076Y-100195611D01*
X135735431Y-100289011D01*
X135668194Y-100308011D01*
X135601359Y-100287643D01*
X135581778Y-100271698D01*
X134622459Y-99312379D01*
X134588974Y-99251056D01*
X134593958Y-99181364D01*
X134605147Y-99158726D01*
X134670169Y-99055244D01*
X134670169Y-99055242D01*
X134670171Y-99055240D01*
X134729750Y-98884973D01*
X134749947Y-98705718D01*
X134747854Y-98687144D01*
X134729751Y-98526468D01*
X134729750Y-98526463D01*
X134670170Y-98356194D01*
X134574197Y-98203455D01*
X134556919Y-98186177D01*
X134523434Y-98124854D01*
X134520600Y-98098496D01*
X134520600Y-93859236D01*
X134520600Y-93859234D01*
X134481381Y-93712865D01*
X134405615Y-93581635D01*
X134298465Y-93474485D01*
X133164920Y-92340940D01*
X133131435Y-92279617D01*
X133132396Y-92222818D01*
X133190622Y-91992890D01*
X133190622Y-91992889D01*
X133190625Y-91992878D01*
X133210336Y-91755000D01*
X133205809Y-91700369D01*
X133190626Y-91517130D01*
X133190624Y-91517118D01*
X133132029Y-91285732D01*
X133048039Y-91094255D01*
X133036147Y-91067144D01*
X132936744Y-90914996D01*
X147989535Y-90914996D01*
X147989535Y-90915003D01*
X148009730Y-91094249D01*
X148009731Y-91094254D01*
X148069311Y-91264523D01*
X148165284Y-91417262D01*
X148292838Y-91544816D01*
X148445578Y-91640789D01*
X148615845Y-91700368D01*
X148615850Y-91700369D01*
X148795096Y-91720565D01*
X148795100Y-91720565D01*
X148795104Y-91720565D01*
X148974349Y-91700369D01*
X148974352Y-91700368D01*
X148974355Y-91700368D01*
X149144622Y-91640789D01*
X149297362Y-91544816D01*
X149424916Y-91417262D01*
X149520889Y-91264522D01*
X149580468Y-91094255D01*
X149583523Y-91067147D01*
X149594751Y-90967486D01*
X149621817Y-90903072D01*
X149630280Y-90893698D01*
X153200728Y-87323250D01*
X153262049Y-87289767D01*
X153331741Y-87294751D01*
X153387674Y-87336623D01*
X153398891Y-87354637D01*
X153473868Y-87501788D01*
X153575686Y-87641928D01*
X153698172Y-87764414D01*
X153838312Y-87866232D01*
X153992655Y-87944873D01*
X154157399Y-87998402D01*
X154328489Y-88025500D01*
X154328490Y-88025500D01*
X154501710Y-88025500D01*
X154501711Y-88025500D01*
X154672801Y-87998402D01*
X154837545Y-87944873D01*
X154991888Y-87866232D01*
X155132028Y-87764414D01*
X155254514Y-87641928D01*
X155356332Y-87501788D01*
X155434973Y-87347445D01*
X155488502Y-87182701D01*
X155515600Y-87011611D01*
X155515600Y-86838389D01*
X155488502Y-86667299D01*
X155434973Y-86502555D01*
X155356332Y-86348212D01*
X155254514Y-86208072D01*
X155132028Y-86085586D01*
X154991888Y-85983768D01*
X154837545Y-85905127D01*
X154672801Y-85851598D01*
X154672799Y-85851597D01*
X154672798Y-85851597D01*
X154541371Y-85830781D01*
X154501711Y-85824500D01*
X154328489Y-85824500D01*
X154288828Y-85830781D01*
X154157402Y-85851597D01*
X153992652Y-85905128D01*
X153838311Y-85983768D01*
X153758356Y-86041859D01*
X153698172Y-86085586D01*
X153698170Y-86085588D01*
X153698169Y-86085588D01*
X153682281Y-86101477D01*
X153620958Y-86134962D01*
X153551266Y-86129978D01*
X153495333Y-86088106D01*
X153470916Y-86022642D01*
X153470600Y-86013796D01*
X153470600Y-83922940D01*
X153490285Y-83855901D01*
X153506919Y-83835259D01*
X153524916Y-83817262D01*
X153620889Y-83664522D01*
X153680468Y-83494255D01*
X153700665Y-83315000D01*
X153680468Y-83135745D01*
X153620889Y-82965478D01*
X153524916Y-82812738D01*
X153397362Y-82685184D01*
X153244623Y-82589211D01*
X153074354Y-82529631D01*
X153074349Y-82529630D01*
X152895104Y-82509435D01*
X152895096Y-82509435D01*
X152715850Y-82529630D01*
X152715845Y-82529631D01*
X152545576Y-82589211D01*
X152392837Y-82685184D01*
X152265284Y-82812737D01*
X152169311Y-82965476D01*
X152109731Y-83135745D01*
X152109730Y-83135750D01*
X152089535Y-83314996D01*
X152089535Y-83315003D01*
X152109730Y-83494249D01*
X152109731Y-83494254D01*
X152169311Y-83664523D01*
X152265284Y-83817262D01*
X152283281Y-83835259D01*
X152316766Y-83896582D01*
X152319600Y-83922940D01*
X152319600Y-86525257D01*
X152299915Y-86592296D01*
X152283281Y-86612938D01*
X148816410Y-90079808D01*
X148755087Y-90113293D01*
X148742613Y-90115347D01*
X148615850Y-90129630D01*
X148445578Y-90189210D01*
X148292837Y-90285184D01*
X148165284Y-90412737D01*
X148069311Y-90565476D01*
X148009731Y-90735745D01*
X148009730Y-90735750D01*
X147989535Y-90914996D01*
X132936744Y-90914996D01*
X132905594Y-90867318D01*
X132743932Y-90691705D01*
X132603671Y-90582536D01*
X132562859Y-90525826D01*
X132559184Y-90456053D01*
X132593815Y-90395370D01*
X132603672Y-90386829D01*
X132743592Y-90277925D01*
X132743595Y-90277922D01*
X132905192Y-90102383D01*
X132905200Y-90102372D01*
X133035706Y-89902619D01*
X133131555Y-89684103D01*
X133187040Y-89465000D01*
X132111510Y-89465000D01*
X132161137Y-89379044D01*
X132190100Y-89270952D01*
X132190100Y-89159048D01*
X132161137Y-89050956D01*
X132111510Y-88965000D01*
X133187040Y-88965000D01*
X133131555Y-88745896D01*
X133035706Y-88527380D01*
X132905200Y-88327627D01*
X132905192Y-88327616D01*
X132743595Y-88152077D01*
X132743585Y-88152068D01*
X132555298Y-88005518D01*
X132555289Y-88005512D01*
X132345449Y-87891953D01*
X132345439Y-87891948D01*
X132119763Y-87814474D01*
X132015100Y-87797009D01*
X132015100Y-88868590D01*
X131929144Y-88818963D01*
X131821052Y-88790000D01*
X131709148Y-88790000D01*
X131601056Y-88818963D01*
X131515100Y-88868590D01*
X131515100Y-87797009D01*
X131515099Y-87797009D01*
X131410436Y-87814474D01*
X131184760Y-87891948D01*
X131184750Y-87891953D01*
X130974910Y-88005512D01*
X130974901Y-88005518D01*
X130786614Y-88152068D01*
X130786610Y-88152072D01*
X130705729Y-88239931D01*
X130645842Y-88275921D01*
X130576004Y-88273820D01*
X130518388Y-88234295D01*
X130491287Y-88169896D01*
X130490500Y-88155947D01*
X130490500Y-86838389D01*
X146314600Y-86838389D01*
X146314600Y-87011610D01*
X146341640Y-87182339D01*
X146341698Y-87182701D01*
X146395227Y-87347445D01*
X146473868Y-87501788D01*
X146575686Y-87641928D01*
X146698172Y-87764414D01*
X146838312Y-87866232D01*
X146992655Y-87944873D01*
X147157399Y-87998402D01*
X147328489Y-88025500D01*
X147328490Y-88025500D01*
X147501710Y-88025500D01*
X147501711Y-88025500D01*
X147672801Y-87998402D01*
X147837545Y-87944873D01*
X147991888Y-87866232D01*
X148132028Y-87764414D01*
X148254514Y-87641928D01*
X148356332Y-87501788D01*
X148434973Y-87347445D01*
X148488502Y-87182701D01*
X148515600Y-87011611D01*
X148515600Y-86838389D01*
X148488502Y-86667299D01*
X148434973Y-86502555D01*
X148356332Y-86348212D01*
X148254514Y-86208072D01*
X148132028Y-86085586D01*
X147991888Y-85983768D01*
X147837545Y-85905127D01*
X147672801Y-85851598D01*
X147672799Y-85851597D01*
X147672798Y-85851597D01*
X147541371Y-85830781D01*
X147501711Y-85824500D01*
X147328489Y-85824500D01*
X147288828Y-85830781D01*
X147157402Y-85851597D01*
X146992652Y-85905128D01*
X146838311Y-85983768D01*
X146758356Y-86041859D01*
X146698172Y-86085586D01*
X146698170Y-86085588D01*
X146698169Y-86085588D01*
X146575688Y-86208069D01*
X146575688Y-86208070D01*
X146575686Y-86208072D01*
X146531959Y-86268256D01*
X146473868Y-86348211D01*
X146395228Y-86502552D01*
X146341697Y-86667302D01*
X146314600Y-86838389D01*
X130490500Y-86838389D01*
X130490500Y-78800375D01*
X131133600Y-78800375D01*
X131133600Y-79049624D01*
X131133601Y-79049641D01*
X131166134Y-79296756D01*
X131230649Y-79537529D01*
X131326031Y-79767804D01*
X131326038Y-79767819D01*
X131450667Y-79983683D01*
X131602407Y-80181434D01*
X131602413Y-80181441D01*
X131778658Y-80357686D01*
X131778665Y-80357692D01*
X131976416Y-80509432D01*
X132192280Y-80634061D01*
X132192295Y-80634068D01*
X132270589Y-80666498D01*
X132422571Y-80729451D01*
X132663340Y-80793965D01*
X132910469Y-80826500D01*
X132910476Y-80826500D01*
X133159724Y-80826500D01*
X133159731Y-80826500D01*
X133406860Y-80793965D01*
X133647629Y-80729451D01*
X133877916Y-80634063D01*
X134093784Y-80509432D01*
X134291536Y-80357691D01*
X134467791Y-80181436D01*
X134619532Y-79983684D01*
X134744163Y-79767816D01*
X134839551Y-79537529D01*
X134904065Y-79296760D01*
X134936600Y-79049631D01*
X134936600Y-78800369D01*
X134904065Y-78553240D01*
X134839551Y-78312471D01*
X134773277Y-78152471D01*
X134744168Y-78082195D01*
X134744161Y-78082180D01*
X134619532Y-77866316D01*
X134467792Y-77668565D01*
X134467786Y-77668558D01*
X134291541Y-77492313D01*
X134291534Y-77492307D01*
X134093783Y-77340567D01*
X133877919Y-77215938D01*
X133877904Y-77215931D01*
X133647629Y-77120549D01*
X133406856Y-77056034D01*
X133159741Y-77023501D01*
X133159736Y-77023500D01*
X133159731Y-77023500D01*
X132910469Y-77023500D01*
X132910463Y-77023500D01*
X132910458Y-77023501D01*
X132663343Y-77056034D01*
X132422570Y-77120549D01*
X132192295Y-77215931D01*
X132192280Y-77215938D01*
X131976416Y-77340567D01*
X131778665Y-77492307D01*
X131778658Y-77492313D01*
X131602413Y-77668558D01*
X131602407Y-77668565D01*
X131450667Y-77866316D01*
X131326038Y-78082180D01*
X131326031Y-78082195D01*
X131230649Y-78312470D01*
X131166134Y-78553243D01*
X131133601Y-78800358D01*
X131133600Y-78800375D01*
X130490500Y-78800375D01*
X130490500Y-76482101D01*
X130510185Y-76415062D01*
X130562989Y-76369307D01*
X130614500Y-76358101D01*
X143890899Y-76358101D01*
X143957938Y-76377786D01*
G37*
%TD.AperFunction*%
%TD*%
D13*
X142450700Y-102710000D03*
X156740000Y-106756100D03*
X147680500Y-107203300D03*
X152948200Y-103866900D03*
X133944382Y-98705718D03*
X131936800Y-103768900D03*
X142791500Y-101462100D03*
X151005100Y-100805000D03*
X152895100Y-83315000D03*
X148795100Y-90915000D03*
X144370862Y-106048600D03*
X144016600Y-104602800D03*
X145108400Y-105523600D03*
X136233600Y-100921400D03*
X149507100Y-100894300D03*
X155535100Y-78765000D03*
X131765100Y-89215000D03*
X131765100Y-91755000D03*
X131765100Y-94295000D03*
X131765100Y-96835000D03*
X131765100Y-99375000D03*
X131765100Y-101915000D03*
X133035100Y-78925000D03*
X154415100Y-86925000D03*
X147415100Y-86925000D03*
X144905100Y-77675000D03*
X147445100Y-77675000D03*
X149985100Y-77675000D03*
X132965100Y-110915000D03*
X155465100Y-110955000D03*
M02*
