M48
METRIC,TZ
T1C0.350
T2C0.850
%
G90
G05
T1
X131937Y-103769
X133944Y-98706
X136234Y-100921
X142451Y-102710
X142792Y-101462
X144017Y-104603
X144371Y-106049
X145108Y-105524
X147681Y-107203
X148795Y-90915
X149507Y-100894
X151005Y-100805
X152895Y-83315
X152948Y-103867
X156740Y-106756
T2
X131765Y-89215
X131765Y-91755
X131765Y-94295
X131765Y-96835
X131765Y-99375
X131765Y-101915
X144905Y-77675
X147445Y-77675
X149985Y-77675
M30
