%TF.GenerationSoftware,KiCad,Pcbnew,8.0.8*%
%TF.CreationDate,2025-02-23T18:34:37+05:30*%
%TF.ProjectId,my-template,6d792d74-656d-4706-9c61-74652e6b6963,rev?*%
%TF.SameCoordinates,Original*%
%TF.FileFunction,Legend,Top*%
%TF.FilePolarity,Positive*%
%FSLAX46Y46*%
G04 Gerber Fmt 4.6, Leading zero omitted, Abs format (unit mm)*
G04 Created by KiCad (PCBNEW 8.0.8) date 2025-02-23 18:34:37*
%MOMM*%
%LPD*%
G01*
G04 APERTURE LIST*
%ADD10C,0.406400*%
%ADD11C,0.100000*%
%ADD12C,0.120000*%
%ADD13C,0.152400*%
%ADD14C,0.000000*%
%ADD15C,0.350000*%
G04 APERTURE END LIST*
D10*
X135110207Y-84042446D02*
G75*
G02*
X137971993Y-82611554I1430893J715446D01*
G01*
X135110207Y-84042446D02*
X138065100Y-88153000D01*
X138065100Y-82565000D02*
G75*
G02*
X141113100Y-84089000I1524000J-762000D01*
G01*
X138065100Y-88153000D02*
X141113100Y-84089000D01*
D11*
X147675100Y-100067180D02*
X147646528Y-100114800D01*
X147646528Y-100114800D02*
X147560814Y-100162419D01*
X147560814Y-100162419D02*
X147503671Y-100162419D01*
X147503671Y-100162419D02*
X147417957Y-100114800D01*
X147417957Y-100114800D02*
X147360814Y-100019561D01*
X147360814Y-100019561D02*
X147332243Y-99924323D01*
X147332243Y-99924323D02*
X147303671Y-99733847D01*
X147303671Y-99733847D02*
X147303671Y-99590990D01*
X147303671Y-99590990D02*
X147332243Y-99400514D01*
X147332243Y-99400514D02*
X147360814Y-99305276D01*
X147360814Y-99305276D02*
X147417957Y-99210038D01*
X147417957Y-99210038D02*
X147503671Y-99162419D01*
X147503671Y-99162419D02*
X147560814Y-99162419D01*
X147560814Y-99162419D02*
X147646528Y-99210038D01*
X147646528Y-99210038D02*
X147675100Y-99257657D01*
X148189386Y-99495752D02*
X148189386Y-100162419D01*
X148046528Y-99114800D02*
X147903671Y-99829085D01*
X147903671Y-99829085D02*
X148275100Y-99829085D01*
X150879285Y-102882419D02*
X150679285Y-102406228D01*
X150536428Y-102882419D02*
X150536428Y-101882419D01*
X150536428Y-101882419D02*
X150764999Y-101882419D01*
X150764999Y-101882419D02*
X150822142Y-101930038D01*
X150822142Y-101930038D02*
X150850713Y-101977657D01*
X150850713Y-101977657D02*
X150879285Y-102072895D01*
X150879285Y-102072895D02*
X150879285Y-102215752D01*
X150879285Y-102215752D02*
X150850713Y-102310990D01*
X150850713Y-102310990D02*
X150822142Y-102358609D01*
X150822142Y-102358609D02*
X150764999Y-102406228D01*
X150764999Y-102406228D02*
X150536428Y-102406228D01*
X151450713Y-102882419D02*
X151107856Y-102882419D01*
X151279285Y-102882419D02*
X151279285Y-101882419D01*
X151279285Y-101882419D02*
X151222142Y-102025276D01*
X151222142Y-102025276D02*
X151164999Y-102120514D01*
X151164999Y-102120514D02*
X151107856Y-102168133D01*
X151822142Y-101882419D02*
X151879285Y-101882419D01*
X151879285Y-101882419D02*
X151936428Y-101930038D01*
X151936428Y-101930038D02*
X151965000Y-101977657D01*
X151965000Y-101977657D02*
X151993571Y-102072895D01*
X151993571Y-102072895D02*
X152022142Y-102263371D01*
X152022142Y-102263371D02*
X152022142Y-102501466D01*
X152022142Y-102501466D02*
X151993571Y-102691942D01*
X151993571Y-102691942D02*
X151965000Y-102787180D01*
X151965000Y-102787180D02*
X151936428Y-102834800D01*
X151936428Y-102834800D02*
X151879285Y-102882419D01*
X151879285Y-102882419D02*
X151822142Y-102882419D01*
X151822142Y-102882419D02*
X151765000Y-102834800D01*
X151765000Y-102834800D02*
X151736428Y-102787180D01*
X151736428Y-102787180D02*
X151707857Y-102691942D01*
X151707857Y-102691942D02*
X151679285Y-102501466D01*
X151679285Y-102501466D02*
X151679285Y-102263371D01*
X151679285Y-102263371D02*
X151707857Y-102072895D01*
X151707857Y-102072895D02*
X151736428Y-101977657D01*
X151736428Y-101977657D02*
X151765000Y-101930038D01*
X151765000Y-101930038D02*
X151822142Y-101882419D01*
X141560000Y-103102419D02*
X141360000Y-102626228D01*
X141217143Y-103102419D02*
X141217143Y-102102419D01*
X141217143Y-102102419D02*
X141445714Y-102102419D01*
X141445714Y-102102419D02*
X141502857Y-102150038D01*
X141502857Y-102150038D02*
X141531428Y-102197657D01*
X141531428Y-102197657D02*
X141560000Y-102292895D01*
X141560000Y-102292895D02*
X141560000Y-102435752D01*
X141560000Y-102435752D02*
X141531428Y-102530990D01*
X141531428Y-102530990D02*
X141502857Y-102578609D01*
X141502857Y-102578609D02*
X141445714Y-102626228D01*
X141445714Y-102626228D02*
X141217143Y-102626228D01*
X141902857Y-102530990D02*
X141845714Y-102483371D01*
X141845714Y-102483371D02*
X141817143Y-102435752D01*
X141817143Y-102435752D02*
X141788571Y-102340514D01*
X141788571Y-102340514D02*
X141788571Y-102292895D01*
X141788571Y-102292895D02*
X141817143Y-102197657D01*
X141817143Y-102197657D02*
X141845714Y-102150038D01*
X141845714Y-102150038D02*
X141902857Y-102102419D01*
X141902857Y-102102419D02*
X142017143Y-102102419D01*
X142017143Y-102102419D02*
X142074286Y-102150038D01*
X142074286Y-102150038D02*
X142102857Y-102197657D01*
X142102857Y-102197657D02*
X142131428Y-102292895D01*
X142131428Y-102292895D02*
X142131428Y-102340514D01*
X142131428Y-102340514D02*
X142102857Y-102435752D01*
X142102857Y-102435752D02*
X142074286Y-102483371D01*
X142074286Y-102483371D02*
X142017143Y-102530990D01*
X142017143Y-102530990D02*
X141902857Y-102530990D01*
X141902857Y-102530990D02*
X141845714Y-102578609D01*
X141845714Y-102578609D02*
X141817143Y-102626228D01*
X141817143Y-102626228D02*
X141788571Y-102721466D01*
X141788571Y-102721466D02*
X141788571Y-102911942D01*
X141788571Y-102911942D02*
X141817143Y-103007180D01*
X141817143Y-103007180D02*
X141845714Y-103054800D01*
X141845714Y-103054800D02*
X141902857Y-103102419D01*
X141902857Y-103102419D02*
X142017143Y-103102419D01*
X142017143Y-103102419D02*
X142074286Y-103054800D01*
X142074286Y-103054800D02*
X142102857Y-103007180D01*
X142102857Y-103007180D02*
X142131428Y-102911942D01*
X142131428Y-102911942D02*
X142131428Y-102721466D01*
X142131428Y-102721466D02*
X142102857Y-102626228D01*
X142102857Y-102626228D02*
X142074286Y-102578609D01*
X142074286Y-102578609D02*
X142017143Y-102530990D01*
X153894285Y-98257419D02*
X153694285Y-97781228D01*
X153551428Y-98257419D02*
X153551428Y-97257419D01*
X153551428Y-97257419D02*
X153779999Y-97257419D01*
X153779999Y-97257419D02*
X153837142Y-97305038D01*
X153837142Y-97305038D02*
X153865713Y-97352657D01*
X153865713Y-97352657D02*
X153894285Y-97447895D01*
X153894285Y-97447895D02*
X153894285Y-97590752D01*
X153894285Y-97590752D02*
X153865713Y-97685990D01*
X153865713Y-97685990D02*
X153837142Y-97733609D01*
X153837142Y-97733609D02*
X153779999Y-97781228D01*
X153779999Y-97781228D02*
X153551428Y-97781228D01*
X154465713Y-98257419D02*
X154122856Y-98257419D01*
X154294285Y-98257419D02*
X154294285Y-97257419D01*
X154294285Y-97257419D02*
X154237142Y-97400276D01*
X154237142Y-97400276D02*
X154179999Y-97495514D01*
X154179999Y-97495514D02*
X154122856Y-97543133D01*
X154665714Y-97257419D02*
X155037142Y-97257419D01*
X155037142Y-97257419D02*
X154837142Y-97638371D01*
X154837142Y-97638371D02*
X154922857Y-97638371D01*
X154922857Y-97638371D02*
X154980000Y-97685990D01*
X154980000Y-97685990D02*
X155008571Y-97733609D01*
X155008571Y-97733609D02*
X155037142Y-97828847D01*
X155037142Y-97828847D02*
X155037142Y-98066942D01*
X155037142Y-98066942D02*
X155008571Y-98162180D01*
X155008571Y-98162180D02*
X154980000Y-98209800D01*
X154980000Y-98209800D02*
X154922857Y-98257419D01*
X154922857Y-98257419D02*
X154751428Y-98257419D01*
X154751428Y-98257419D02*
X154694285Y-98209800D01*
X154694285Y-98209800D02*
X154665714Y-98162180D01*
X139022243Y-84622419D02*
X139022243Y-83622419D01*
X139022243Y-83622419D02*
X139165100Y-83622419D01*
X139165100Y-83622419D02*
X139250814Y-83670038D01*
X139250814Y-83670038D02*
X139307957Y-83765276D01*
X139307957Y-83765276D02*
X139336528Y-83860514D01*
X139336528Y-83860514D02*
X139365100Y-84050990D01*
X139365100Y-84050990D02*
X139365100Y-84193847D01*
X139365100Y-84193847D02*
X139336528Y-84384323D01*
X139336528Y-84384323D02*
X139307957Y-84479561D01*
X139307957Y-84479561D02*
X139250814Y-84574800D01*
X139250814Y-84574800D02*
X139165100Y-84622419D01*
X139165100Y-84622419D02*
X139022243Y-84622419D01*
X139936528Y-84622419D02*
X139593671Y-84622419D01*
X139765100Y-84622419D02*
X139765100Y-83622419D01*
X139765100Y-83622419D02*
X139707957Y-83765276D01*
X139707957Y-83765276D02*
X139650814Y-83860514D01*
X139650814Y-83860514D02*
X139593671Y-83908133D01*
X145355100Y-106917180D02*
X145326528Y-106964800D01*
X145326528Y-106964800D02*
X145240814Y-107012419D01*
X145240814Y-107012419D02*
X145183671Y-107012419D01*
X145183671Y-107012419D02*
X145097957Y-106964800D01*
X145097957Y-106964800D02*
X145040814Y-106869561D01*
X145040814Y-106869561D02*
X145012243Y-106774323D01*
X145012243Y-106774323D02*
X144983671Y-106583847D01*
X144983671Y-106583847D02*
X144983671Y-106440990D01*
X144983671Y-106440990D02*
X145012243Y-106250514D01*
X145012243Y-106250514D02*
X145040814Y-106155276D01*
X145040814Y-106155276D02*
X145097957Y-106060038D01*
X145097957Y-106060038D02*
X145183671Y-106012419D01*
X145183671Y-106012419D02*
X145240814Y-106012419D01*
X145240814Y-106012419D02*
X145326528Y-106060038D01*
X145326528Y-106060038D02*
X145355100Y-106107657D01*
X145897957Y-106012419D02*
X145612243Y-106012419D01*
X145612243Y-106012419D02*
X145583671Y-106488609D01*
X145583671Y-106488609D02*
X145612243Y-106440990D01*
X145612243Y-106440990D02*
X145669386Y-106393371D01*
X145669386Y-106393371D02*
X145812243Y-106393371D01*
X145812243Y-106393371D02*
X145869386Y-106440990D01*
X145869386Y-106440990D02*
X145897957Y-106488609D01*
X145897957Y-106488609D02*
X145926528Y-106583847D01*
X145926528Y-106583847D02*
X145926528Y-106821942D01*
X145926528Y-106821942D02*
X145897957Y-106917180D01*
X145897957Y-106917180D02*
X145869386Y-106964800D01*
X145869386Y-106964800D02*
X145812243Y-107012419D01*
X145812243Y-107012419D02*
X145669386Y-107012419D01*
X145669386Y-107012419D02*
X145612243Y-106964800D01*
X145612243Y-106964800D02*
X145583671Y-106917180D01*
X150914285Y-97217419D02*
X150714285Y-96741228D01*
X150571428Y-97217419D02*
X150571428Y-96217419D01*
X150571428Y-96217419D02*
X150799999Y-96217419D01*
X150799999Y-96217419D02*
X150857142Y-96265038D01*
X150857142Y-96265038D02*
X150885713Y-96312657D01*
X150885713Y-96312657D02*
X150914285Y-96407895D01*
X150914285Y-96407895D02*
X150914285Y-96550752D01*
X150914285Y-96550752D02*
X150885713Y-96645990D01*
X150885713Y-96645990D02*
X150857142Y-96693609D01*
X150857142Y-96693609D02*
X150799999Y-96741228D01*
X150799999Y-96741228D02*
X150571428Y-96741228D01*
X151485713Y-97217419D02*
X151142856Y-97217419D01*
X151314285Y-97217419D02*
X151314285Y-96217419D01*
X151314285Y-96217419D02*
X151257142Y-96360276D01*
X151257142Y-96360276D02*
X151199999Y-96455514D01*
X151199999Y-96455514D02*
X151142856Y-96503133D01*
X152057142Y-97217419D02*
X151714285Y-97217419D01*
X151885714Y-97217419D02*
X151885714Y-96217419D01*
X151885714Y-96217419D02*
X151828571Y-96360276D01*
X151828571Y-96360276D02*
X151771428Y-96455514D01*
X151771428Y-96455514D02*
X151714285Y-96503133D01*
X138060000Y-97782419D02*
X137860000Y-97306228D01*
X137717143Y-97782419D02*
X137717143Y-96782419D01*
X137717143Y-96782419D02*
X137945714Y-96782419D01*
X137945714Y-96782419D02*
X138002857Y-96830038D01*
X138002857Y-96830038D02*
X138031428Y-96877657D01*
X138031428Y-96877657D02*
X138060000Y-96972895D01*
X138060000Y-96972895D02*
X138060000Y-97115752D01*
X138060000Y-97115752D02*
X138031428Y-97210990D01*
X138031428Y-97210990D02*
X138002857Y-97258609D01*
X138002857Y-97258609D02*
X137945714Y-97306228D01*
X137945714Y-97306228D02*
X137717143Y-97306228D01*
X138260000Y-96782419D02*
X138660000Y-96782419D01*
X138660000Y-96782419D02*
X138402857Y-97782419D01*
X138709385Y-92922419D02*
X138509385Y-92446228D01*
X138366528Y-92922419D02*
X138366528Y-91922419D01*
X138366528Y-91922419D02*
X138595099Y-91922419D01*
X138595099Y-91922419D02*
X138652242Y-91970038D01*
X138652242Y-91970038D02*
X138680813Y-92017657D01*
X138680813Y-92017657D02*
X138709385Y-92112895D01*
X138709385Y-92112895D02*
X138709385Y-92255752D01*
X138709385Y-92255752D02*
X138680813Y-92350990D01*
X138680813Y-92350990D02*
X138652242Y-92398609D01*
X138652242Y-92398609D02*
X138595099Y-92446228D01*
X138595099Y-92446228D02*
X138366528Y-92446228D01*
X139280813Y-92922419D02*
X138937956Y-92922419D01*
X139109385Y-92922419D02*
X139109385Y-91922419D01*
X139109385Y-91922419D02*
X139052242Y-92065276D01*
X139052242Y-92065276D02*
X138995099Y-92160514D01*
X138995099Y-92160514D02*
X138937956Y-92208133D01*
X139795100Y-91922419D02*
X139680814Y-91922419D01*
X139680814Y-91922419D02*
X139623671Y-91970038D01*
X139623671Y-91970038D02*
X139595100Y-92017657D01*
X139595100Y-92017657D02*
X139537957Y-92160514D01*
X139537957Y-92160514D02*
X139509385Y-92350990D01*
X139509385Y-92350990D02*
X139509385Y-92731942D01*
X139509385Y-92731942D02*
X139537957Y-92827180D01*
X139537957Y-92827180D02*
X139566528Y-92874800D01*
X139566528Y-92874800D02*
X139623671Y-92922419D01*
X139623671Y-92922419D02*
X139737957Y-92922419D01*
X139737957Y-92922419D02*
X139795100Y-92874800D01*
X139795100Y-92874800D02*
X139823671Y-92827180D01*
X139823671Y-92827180D02*
X139852242Y-92731942D01*
X139852242Y-92731942D02*
X139852242Y-92493847D01*
X139852242Y-92493847D02*
X139823671Y-92398609D01*
X139823671Y-92398609D02*
X139795100Y-92350990D01*
X139795100Y-92350990D02*
X139737957Y-92303371D01*
X139737957Y-92303371D02*
X139623671Y-92303371D01*
X139623671Y-92303371D02*
X139566528Y-92350990D01*
X139566528Y-92350990D02*
X139537957Y-92398609D01*
X139537957Y-92398609D02*
X139509385Y-92493847D01*
X143540000Y-99652180D02*
X143511428Y-99699800D01*
X143511428Y-99699800D02*
X143425714Y-99747419D01*
X143425714Y-99747419D02*
X143368571Y-99747419D01*
X143368571Y-99747419D02*
X143282857Y-99699800D01*
X143282857Y-99699800D02*
X143225714Y-99604561D01*
X143225714Y-99604561D02*
X143197143Y-99509323D01*
X143197143Y-99509323D02*
X143168571Y-99318847D01*
X143168571Y-99318847D02*
X143168571Y-99175990D01*
X143168571Y-99175990D02*
X143197143Y-98985514D01*
X143197143Y-98985514D02*
X143225714Y-98890276D01*
X143225714Y-98890276D02*
X143282857Y-98795038D01*
X143282857Y-98795038D02*
X143368571Y-98747419D01*
X143368571Y-98747419D02*
X143425714Y-98747419D01*
X143425714Y-98747419D02*
X143511428Y-98795038D01*
X143511428Y-98795038D02*
X143540000Y-98842657D01*
X143768571Y-98842657D02*
X143797143Y-98795038D01*
X143797143Y-98795038D02*
X143854286Y-98747419D01*
X143854286Y-98747419D02*
X143997143Y-98747419D01*
X143997143Y-98747419D02*
X144054286Y-98795038D01*
X144054286Y-98795038D02*
X144082857Y-98842657D01*
X144082857Y-98842657D02*
X144111428Y-98937895D01*
X144111428Y-98937895D02*
X144111428Y-99033133D01*
X144111428Y-99033133D02*
X144082857Y-99175990D01*
X144082857Y-99175990D02*
X143740000Y-99747419D01*
X143740000Y-99747419D02*
X144111428Y-99747419D01*
X146268242Y-92892419D02*
X146068242Y-92416228D01*
X145925385Y-92892419D02*
X145925385Y-91892419D01*
X145925385Y-91892419D02*
X146153956Y-91892419D01*
X146153956Y-91892419D02*
X146211099Y-91940038D01*
X146211099Y-91940038D02*
X146239670Y-91987657D01*
X146239670Y-91987657D02*
X146268242Y-92082895D01*
X146268242Y-92082895D02*
X146268242Y-92225752D01*
X146268242Y-92225752D02*
X146239670Y-92320990D01*
X146239670Y-92320990D02*
X146211099Y-92368609D01*
X146211099Y-92368609D02*
X146153956Y-92416228D01*
X146153956Y-92416228D02*
X145925385Y-92416228D01*
X146468242Y-91892419D02*
X146839670Y-91892419D01*
X146839670Y-91892419D02*
X146639670Y-92273371D01*
X146639670Y-92273371D02*
X146725385Y-92273371D01*
X146725385Y-92273371D02*
X146782528Y-92320990D01*
X146782528Y-92320990D02*
X146811099Y-92368609D01*
X146811099Y-92368609D02*
X146839670Y-92463847D01*
X146839670Y-92463847D02*
X146839670Y-92701942D01*
X146839670Y-92701942D02*
X146811099Y-92797180D01*
X146811099Y-92797180D02*
X146782528Y-92844800D01*
X146782528Y-92844800D02*
X146725385Y-92892419D01*
X146725385Y-92892419D02*
X146553956Y-92892419D01*
X146553956Y-92892419D02*
X146496813Y-92844800D01*
X146496813Y-92844800D02*
X146468242Y-92797180D01*
X156710000Y-107842180D02*
X156681428Y-107889800D01*
X156681428Y-107889800D02*
X156595714Y-107937419D01*
X156595714Y-107937419D02*
X156538571Y-107937419D01*
X156538571Y-107937419D02*
X156452857Y-107889800D01*
X156452857Y-107889800D02*
X156395714Y-107794561D01*
X156395714Y-107794561D02*
X156367143Y-107699323D01*
X156367143Y-107699323D02*
X156338571Y-107508847D01*
X156338571Y-107508847D02*
X156338571Y-107365990D01*
X156338571Y-107365990D02*
X156367143Y-107175514D01*
X156367143Y-107175514D02*
X156395714Y-107080276D01*
X156395714Y-107080276D02*
X156452857Y-106985038D01*
X156452857Y-106985038D02*
X156538571Y-106937419D01*
X156538571Y-106937419D02*
X156595714Y-106937419D01*
X156595714Y-106937419D02*
X156681428Y-106985038D01*
X156681428Y-106985038D02*
X156710000Y-107032657D01*
X157224286Y-106937419D02*
X157110000Y-106937419D01*
X157110000Y-106937419D02*
X157052857Y-106985038D01*
X157052857Y-106985038D02*
X157024286Y-107032657D01*
X157024286Y-107032657D02*
X156967143Y-107175514D01*
X156967143Y-107175514D02*
X156938571Y-107365990D01*
X156938571Y-107365990D02*
X156938571Y-107746942D01*
X156938571Y-107746942D02*
X156967143Y-107842180D01*
X156967143Y-107842180D02*
X156995714Y-107889800D01*
X156995714Y-107889800D02*
X157052857Y-107937419D01*
X157052857Y-107937419D02*
X157167143Y-107937419D01*
X157167143Y-107937419D02*
X157224286Y-107889800D01*
X157224286Y-107889800D02*
X157252857Y-107842180D01*
X157252857Y-107842180D02*
X157281428Y-107746942D01*
X157281428Y-107746942D02*
X157281428Y-107508847D01*
X157281428Y-107508847D02*
X157252857Y-107413609D01*
X157252857Y-107413609D02*
X157224286Y-107365990D01*
X157224286Y-107365990D02*
X157167143Y-107318371D01*
X157167143Y-107318371D02*
X157052857Y-107318371D01*
X157052857Y-107318371D02*
X156995714Y-107365990D01*
X156995714Y-107365990D02*
X156967143Y-107413609D01*
X156967143Y-107413609D02*
X156938571Y-107508847D01*
X131259385Y-104212419D02*
X131059385Y-103736228D01*
X130916528Y-104212419D02*
X130916528Y-103212419D01*
X130916528Y-103212419D02*
X131145099Y-103212419D01*
X131145099Y-103212419D02*
X131202242Y-103260038D01*
X131202242Y-103260038D02*
X131230813Y-103307657D01*
X131230813Y-103307657D02*
X131259385Y-103402895D01*
X131259385Y-103402895D02*
X131259385Y-103545752D01*
X131259385Y-103545752D02*
X131230813Y-103640990D01*
X131230813Y-103640990D02*
X131202242Y-103688609D01*
X131202242Y-103688609D02*
X131145099Y-103736228D01*
X131145099Y-103736228D02*
X130916528Y-103736228D01*
X131830813Y-104212419D02*
X131487956Y-104212419D01*
X131659385Y-104212419D02*
X131659385Y-103212419D01*
X131659385Y-103212419D02*
X131602242Y-103355276D01*
X131602242Y-103355276D02*
X131545099Y-103450514D01*
X131545099Y-103450514D02*
X131487956Y-103498133D01*
X132373671Y-103212419D02*
X132087957Y-103212419D01*
X132087957Y-103212419D02*
X132059385Y-103688609D01*
X132059385Y-103688609D02*
X132087957Y-103640990D01*
X132087957Y-103640990D02*
X132145100Y-103593371D01*
X132145100Y-103593371D02*
X132287957Y-103593371D01*
X132287957Y-103593371D02*
X132345100Y-103640990D01*
X132345100Y-103640990D02*
X132373671Y-103688609D01*
X132373671Y-103688609D02*
X132402242Y-103783847D01*
X132402242Y-103783847D02*
X132402242Y-104021942D01*
X132402242Y-104021942D02*
X132373671Y-104117180D01*
X132373671Y-104117180D02*
X132345100Y-104164800D01*
X132345100Y-104164800D02*
X132287957Y-104212419D01*
X132287957Y-104212419D02*
X132145100Y-104212419D01*
X132145100Y-104212419D02*
X132087957Y-104164800D01*
X132087957Y-104164800D02*
X132059385Y-104117180D01*
X135605100Y-97532419D02*
X135405100Y-97056228D01*
X135262243Y-97532419D02*
X135262243Y-96532419D01*
X135262243Y-96532419D02*
X135490814Y-96532419D01*
X135490814Y-96532419D02*
X135547957Y-96580038D01*
X135547957Y-96580038D02*
X135576528Y-96627657D01*
X135576528Y-96627657D02*
X135605100Y-96722895D01*
X135605100Y-96722895D02*
X135605100Y-96865752D01*
X135605100Y-96865752D02*
X135576528Y-96960990D01*
X135576528Y-96960990D02*
X135547957Y-97008609D01*
X135547957Y-97008609D02*
X135490814Y-97056228D01*
X135490814Y-97056228D02*
X135262243Y-97056228D01*
X136119386Y-96532419D02*
X136005100Y-96532419D01*
X136005100Y-96532419D02*
X135947957Y-96580038D01*
X135947957Y-96580038D02*
X135919386Y-96627657D01*
X135919386Y-96627657D02*
X135862243Y-96770514D01*
X135862243Y-96770514D02*
X135833671Y-96960990D01*
X135833671Y-96960990D02*
X135833671Y-97341942D01*
X135833671Y-97341942D02*
X135862243Y-97437180D01*
X135862243Y-97437180D02*
X135890814Y-97484800D01*
X135890814Y-97484800D02*
X135947957Y-97532419D01*
X135947957Y-97532419D02*
X136062243Y-97532419D01*
X136062243Y-97532419D02*
X136119386Y-97484800D01*
X136119386Y-97484800D02*
X136147957Y-97437180D01*
X136147957Y-97437180D02*
X136176528Y-97341942D01*
X136176528Y-97341942D02*
X136176528Y-97103847D01*
X136176528Y-97103847D02*
X136147957Y-97008609D01*
X136147957Y-97008609D02*
X136119386Y-96960990D01*
X136119386Y-96960990D02*
X136062243Y-96913371D01*
X136062243Y-96913371D02*
X135947957Y-96913371D01*
X135947957Y-96913371D02*
X135890814Y-96960990D01*
X135890814Y-96960990D02*
X135862243Y-97008609D01*
X135862243Y-97008609D02*
X135833671Y-97103847D01*
X141027671Y-92912419D02*
X140827671Y-92436228D01*
X140684814Y-92912419D02*
X140684814Y-91912419D01*
X140684814Y-91912419D02*
X140913385Y-91912419D01*
X140913385Y-91912419D02*
X140970528Y-91960038D01*
X140970528Y-91960038D02*
X140999099Y-92007657D01*
X140999099Y-92007657D02*
X141027671Y-92102895D01*
X141027671Y-92102895D02*
X141027671Y-92245752D01*
X141027671Y-92245752D02*
X140999099Y-92340990D01*
X140999099Y-92340990D02*
X140970528Y-92388609D01*
X140970528Y-92388609D02*
X140913385Y-92436228D01*
X140913385Y-92436228D02*
X140684814Y-92436228D01*
X141570528Y-91912419D02*
X141284814Y-91912419D01*
X141284814Y-91912419D02*
X141256242Y-92388609D01*
X141256242Y-92388609D02*
X141284814Y-92340990D01*
X141284814Y-92340990D02*
X141341957Y-92293371D01*
X141341957Y-92293371D02*
X141484814Y-92293371D01*
X141484814Y-92293371D02*
X141541957Y-92340990D01*
X141541957Y-92340990D02*
X141570528Y-92388609D01*
X141570528Y-92388609D02*
X141599099Y-92483847D01*
X141599099Y-92483847D02*
X141599099Y-92721942D01*
X141599099Y-92721942D02*
X141570528Y-92817180D01*
X141570528Y-92817180D02*
X141541957Y-92864800D01*
X141541957Y-92864800D02*
X141484814Y-92912419D01*
X141484814Y-92912419D02*
X141341957Y-92912419D01*
X141341957Y-92912419D02*
X141284814Y-92864800D01*
X141284814Y-92864800D02*
X141256242Y-92817180D01*
X148015100Y-92852419D02*
X147815100Y-92376228D01*
X147672243Y-92852419D02*
X147672243Y-91852419D01*
X147672243Y-91852419D02*
X147900814Y-91852419D01*
X147900814Y-91852419D02*
X147957957Y-91900038D01*
X147957957Y-91900038D02*
X147986528Y-91947657D01*
X147986528Y-91947657D02*
X148015100Y-92042895D01*
X148015100Y-92042895D02*
X148015100Y-92185752D01*
X148015100Y-92185752D02*
X147986528Y-92280990D01*
X147986528Y-92280990D02*
X147957957Y-92328609D01*
X147957957Y-92328609D02*
X147900814Y-92376228D01*
X147900814Y-92376228D02*
X147672243Y-92376228D01*
X148586528Y-92852419D02*
X148243671Y-92852419D01*
X148415100Y-92852419D02*
X148415100Y-91852419D01*
X148415100Y-91852419D02*
X148357957Y-91995276D01*
X148357957Y-91995276D02*
X148300814Y-92090514D01*
X148300814Y-92090514D02*
X148243671Y-92138133D01*
X152109385Y-109402419D02*
X151909385Y-108926228D01*
X151766528Y-109402419D02*
X151766528Y-108402419D01*
X151766528Y-108402419D02*
X151995099Y-108402419D01*
X151995099Y-108402419D02*
X152052242Y-108450038D01*
X152052242Y-108450038D02*
X152080813Y-108497657D01*
X152080813Y-108497657D02*
X152109385Y-108592895D01*
X152109385Y-108592895D02*
X152109385Y-108735752D01*
X152109385Y-108735752D02*
X152080813Y-108830990D01*
X152080813Y-108830990D02*
X152052242Y-108878609D01*
X152052242Y-108878609D02*
X151995099Y-108926228D01*
X151995099Y-108926228D02*
X151766528Y-108926228D01*
X152680813Y-109402419D02*
X152337956Y-109402419D01*
X152509385Y-109402419D02*
X152509385Y-108402419D01*
X152509385Y-108402419D02*
X152452242Y-108545276D01*
X152452242Y-108545276D02*
X152395099Y-108640514D01*
X152395099Y-108640514D02*
X152337956Y-108688133D01*
X153195100Y-108735752D02*
X153195100Y-109402419D01*
X153052242Y-108354800D02*
X152909385Y-109069085D01*
X152909385Y-109069085D02*
X153280814Y-109069085D01*
X137990000Y-105152180D02*
X137961428Y-105199800D01*
X137961428Y-105199800D02*
X137875714Y-105247419D01*
X137875714Y-105247419D02*
X137818571Y-105247419D01*
X137818571Y-105247419D02*
X137732857Y-105199800D01*
X137732857Y-105199800D02*
X137675714Y-105104561D01*
X137675714Y-105104561D02*
X137647143Y-105009323D01*
X137647143Y-105009323D02*
X137618571Y-104818847D01*
X137618571Y-104818847D02*
X137618571Y-104675990D01*
X137618571Y-104675990D02*
X137647143Y-104485514D01*
X137647143Y-104485514D02*
X137675714Y-104390276D01*
X137675714Y-104390276D02*
X137732857Y-104295038D01*
X137732857Y-104295038D02*
X137818571Y-104247419D01*
X137818571Y-104247419D02*
X137875714Y-104247419D01*
X137875714Y-104247419D02*
X137961428Y-104295038D01*
X137961428Y-104295038D02*
X137990000Y-104342657D01*
X138561428Y-105247419D02*
X138218571Y-105247419D01*
X138390000Y-105247419D02*
X138390000Y-104247419D01*
X138390000Y-104247419D02*
X138332857Y-104390276D01*
X138332857Y-104390276D02*
X138275714Y-104485514D01*
X138275714Y-104485514D02*
X138218571Y-104533133D01*
X142774528Y-92862419D02*
X142574528Y-92386228D01*
X142431671Y-92862419D02*
X142431671Y-91862419D01*
X142431671Y-91862419D02*
X142660242Y-91862419D01*
X142660242Y-91862419D02*
X142717385Y-91910038D01*
X142717385Y-91910038D02*
X142745956Y-91957657D01*
X142745956Y-91957657D02*
X142774528Y-92052895D01*
X142774528Y-92052895D02*
X142774528Y-92195752D01*
X142774528Y-92195752D02*
X142745956Y-92290990D01*
X142745956Y-92290990D02*
X142717385Y-92338609D01*
X142717385Y-92338609D02*
X142660242Y-92386228D01*
X142660242Y-92386228D02*
X142431671Y-92386228D01*
X143003099Y-91957657D02*
X143031671Y-91910038D01*
X143031671Y-91910038D02*
X143088814Y-91862419D01*
X143088814Y-91862419D02*
X143231671Y-91862419D01*
X143231671Y-91862419D02*
X143288814Y-91910038D01*
X143288814Y-91910038D02*
X143317385Y-91957657D01*
X143317385Y-91957657D02*
X143345956Y-92052895D01*
X143345956Y-92052895D02*
X143345956Y-92148133D01*
X143345956Y-92148133D02*
X143317385Y-92290990D01*
X143317385Y-92290990D02*
X142974528Y-92862419D01*
X142974528Y-92862419D02*
X143345956Y-92862419D01*
X156354285Y-99537419D02*
X156154285Y-99061228D01*
X156011428Y-99537419D02*
X156011428Y-98537419D01*
X156011428Y-98537419D02*
X156239999Y-98537419D01*
X156239999Y-98537419D02*
X156297142Y-98585038D01*
X156297142Y-98585038D02*
X156325713Y-98632657D01*
X156325713Y-98632657D02*
X156354285Y-98727895D01*
X156354285Y-98727895D02*
X156354285Y-98870752D01*
X156354285Y-98870752D02*
X156325713Y-98965990D01*
X156325713Y-98965990D02*
X156297142Y-99013609D01*
X156297142Y-99013609D02*
X156239999Y-99061228D01*
X156239999Y-99061228D02*
X156011428Y-99061228D01*
X156925713Y-99537419D02*
X156582856Y-99537419D01*
X156754285Y-99537419D02*
X156754285Y-98537419D01*
X156754285Y-98537419D02*
X156697142Y-98680276D01*
X156697142Y-98680276D02*
X156639999Y-98775514D01*
X156639999Y-98775514D02*
X156582856Y-98823133D01*
X157125714Y-98537419D02*
X157525714Y-98537419D01*
X157525714Y-98537419D02*
X157268571Y-99537419D01*
X144521385Y-92862419D02*
X144321385Y-92386228D01*
X144178528Y-92862419D02*
X144178528Y-91862419D01*
X144178528Y-91862419D02*
X144407099Y-91862419D01*
X144407099Y-91862419D02*
X144464242Y-91910038D01*
X144464242Y-91910038D02*
X144492813Y-91957657D01*
X144492813Y-91957657D02*
X144521385Y-92052895D01*
X144521385Y-92052895D02*
X144521385Y-92195752D01*
X144521385Y-92195752D02*
X144492813Y-92290990D01*
X144492813Y-92290990D02*
X144464242Y-92338609D01*
X144464242Y-92338609D02*
X144407099Y-92386228D01*
X144407099Y-92386228D02*
X144178528Y-92386228D01*
X145035671Y-92195752D02*
X145035671Y-92862419D01*
X144892813Y-91814800D02*
X144749956Y-92529085D01*
X144749956Y-92529085D02*
X145121385Y-92529085D01*
X144849385Y-108592419D02*
X144649385Y-108116228D01*
X144506528Y-108592419D02*
X144506528Y-107592419D01*
X144506528Y-107592419D02*
X144735099Y-107592419D01*
X144735099Y-107592419D02*
X144792242Y-107640038D01*
X144792242Y-107640038D02*
X144820813Y-107687657D01*
X144820813Y-107687657D02*
X144849385Y-107782895D01*
X144849385Y-107782895D02*
X144849385Y-107925752D01*
X144849385Y-107925752D02*
X144820813Y-108020990D01*
X144820813Y-108020990D02*
X144792242Y-108068609D01*
X144792242Y-108068609D02*
X144735099Y-108116228D01*
X144735099Y-108116228D02*
X144506528Y-108116228D01*
X145420813Y-108592419D02*
X145077956Y-108592419D01*
X145249385Y-108592419D02*
X145249385Y-107592419D01*
X145249385Y-107592419D02*
X145192242Y-107735276D01*
X145192242Y-107735276D02*
X145135099Y-107830514D01*
X145135099Y-107830514D02*
X145077956Y-107878133D01*
X145706528Y-108592419D02*
X145820814Y-108592419D01*
X145820814Y-108592419D02*
X145877957Y-108544800D01*
X145877957Y-108544800D02*
X145906528Y-108497180D01*
X145906528Y-108497180D02*
X145963671Y-108354323D01*
X145963671Y-108354323D02*
X145992242Y-108163847D01*
X145992242Y-108163847D02*
X145992242Y-107782895D01*
X145992242Y-107782895D02*
X145963671Y-107687657D01*
X145963671Y-107687657D02*
X145935100Y-107640038D01*
X145935100Y-107640038D02*
X145877957Y-107592419D01*
X145877957Y-107592419D02*
X145763671Y-107592419D01*
X145763671Y-107592419D02*
X145706528Y-107640038D01*
X145706528Y-107640038D02*
X145677957Y-107687657D01*
X145677957Y-107687657D02*
X145649385Y-107782895D01*
X145649385Y-107782895D02*
X145649385Y-108020990D01*
X145649385Y-108020990D02*
X145677957Y-108116228D01*
X145677957Y-108116228D02*
X145706528Y-108163847D01*
X145706528Y-108163847D02*
X145763671Y-108211466D01*
X145763671Y-108211466D02*
X145877957Y-108211466D01*
X145877957Y-108211466D02*
X145935100Y-108163847D01*
X145935100Y-108163847D02*
X145963671Y-108116228D01*
X145963671Y-108116228D02*
X145992242Y-108020990D01*
X154019385Y-105842419D02*
X153819385Y-105366228D01*
X153676528Y-105842419D02*
X153676528Y-104842419D01*
X153676528Y-104842419D02*
X153905099Y-104842419D01*
X153905099Y-104842419D02*
X153962242Y-104890038D01*
X153962242Y-104890038D02*
X153990813Y-104937657D01*
X153990813Y-104937657D02*
X154019385Y-105032895D01*
X154019385Y-105032895D02*
X154019385Y-105175752D01*
X154019385Y-105175752D02*
X153990813Y-105270990D01*
X153990813Y-105270990D02*
X153962242Y-105318609D01*
X153962242Y-105318609D02*
X153905099Y-105366228D01*
X153905099Y-105366228D02*
X153676528Y-105366228D01*
X154590813Y-105842419D02*
X154247956Y-105842419D01*
X154419385Y-105842419D02*
X154419385Y-104842419D01*
X154419385Y-104842419D02*
X154362242Y-104985276D01*
X154362242Y-104985276D02*
X154305099Y-105080514D01*
X154305099Y-105080514D02*
X154247956Y-105128133D01*
X154819385Y-104937657D02*
X154847957Y-104890038D01*
X154847957Y-104890038D02*
X154905100Y-104842419D01*
X154905100Y-104842419D02*
X155047957Y-104842419D01*
X155047957Y-104842419D02*
X155105100Y-104890038D01*
X155105100Y-104890038D02*
X155133671Y-104937657D01*
X155133671Y-104937657D02*
X155162242Y-105032895D01*
X155162242Y-105032895D02*
X155162242Y-105128133D01*
X155162242Y-105128133D02*
X155133671Y-105270990D01*
X155133671Y-105270990D02*
X154790814Y-105842419D01*
X154790814Y-105842419D02*
X155162242Y-105842419D01*
X140280000Y-108642419D02*
X140080000Y-108166228D01*
X139937143Y-108642419D02*
X139937143Y-107642419D01*
X139937143Y-107642419D02*
X140165714Y-107642419D01*
X140165714Y-107642419D02*
X140222857Y-107690038D01*
X140222857Y-107690038D02*
X140251428Y-107737657D01*
X140251428Y-107737657D02*
X140280000Y-107832895D01*
X140280000Y-107832895D02*
X140280000Y-107975752D01*
X140280000Y-107975752D02*
X140251428Y-108070990D01*
X140251428Y-108070990D02*
X140222857Y-108118609D01*
X140222857Y-108118609D02*
X140165714Y-108166228D01*
X140165714Y-108166228D02*
X139937143Y-108166228D01*
X140565714Y-108642419D02*
X140680000Y-108642419D01*
X140680000Y-108642419D02*
X140737143Y-108594800D01*
X140737143Y-108594800D02*
X140765714Y-108547180D01*
X140765714Y-108547180D02*
X140822857Y-108404323D01*
X140822857Y-108404323D02*
X140851428Y-108213847D01*
X140851428Y-108213847D02*
X140851428Y-107832895D01*
X140851428Y-107832895D02*
X140822857Y-107737657D01*
X140822857Y-107737657D02*
X140794286Y-107690038D01*
X140794286Y-107690038D02*
X140737143Y-107642419D01*
X140737143Y-107642419D02*
X140622857Y-107642419D01*
X140622857Y-107642419D02*
X140565714Y-107690038D01*
X140565714Y-107690038D02*
X140537143Y-107737657D01*
X140537143Y-107737657D02*
X140508571Y-107832895D01*
X140508571Y-107832895D02*
X140508571Y-108070990D01*
X140508571Y-108070990D02*
X140537143Y-108166228D01*
X140537143Y-108166228D02*
X140565714Y-108213847D01*
X140565714Y-108213847D02*
X140622857Y-108261466D01*
X140622857Y-108261466D02*
X140737143Y-108261466D01*
X140737143Y-108261466D02*
X140794286Y-108213847D01*
X140794286Y-108213847D02*
X140822857Y-108166228D01*
X140822857Y-108166228D02*
X140851428Y-108070990D01*
X140100000Y-97637180D02*
X140071428Y-97684800D01*
X140071428Y-97684800D02*
X139985714Y-97732419D01*
X139985714Y-97732419D02*
X139928571Y-97732419D01*
X139928571Y-97732419D02*
X139842857Y-97684800D01*
X139842857Y-97684800D02*
X139785714Y-97589561D01*
X139785714Y-97589561D02*
X139757143Y-97494323D01*
X139757143Y-97494323D02*
X139728571Y-97303847D01*
X139728571Y-97303847D02*
X139728571Y-97160990D01*
X139728571Y-97160990D02*
X139757143Y-96970514D01*
X139757143Y-96970514D02*
X139785714Y-96875276D01*
X139785714Y-96875276D02*
X139842857Y-96780038D01*
X139842857Y-96780038D02*
X139928571Y-96732419D01*
X139928571Y-96732419D02*
X139985714Y-96732419D01*
X139985714Y-96732419D02*
X140071428Y-96780038D01*
X140071428Y-96780038D02*
X140100000Y-96827657D01*
X140300000Y-96732419D02*
X140671428Y-96732419D01*
X140671428Y-96732419D02*
X140471428Y-97113371D01*
X140471428Y-97113371D02*
X140557143Y-97113371D01*
X140557143Y-97113371D02*
X140614286Y-97160990D01*
X140614286Y-97160990D02*
X140642857Y-97208609D01*
X140642857Y-97208609D02*
X140671428Y-97303847D01*
X140671428Y-97303847D02*
X140671428Y-97541942D01*
X140671428Y-97541942D02*
X140642857Y-97637180D01*
X140642857Y-97637180D02*
X140614286Y-97684800D01*
X140614286Y-97684800D02*
X140557143Y-97732419D01*
X140557143Y-97732419D02*
X140385714Y-97732419D01*
X140385714Y-97732419D02*
X140328571Y-97684800D01*
X140328571Y-97684800D02*
X140300000Y-97637180D01*
X150265100Y-109457180D02*
X150236528Y-109504800D01*
X150236528Y-109504800D02*
X150150814Y-109552419D01*
X150150814Y-109552419D02*
X150093671Y-109552419D01*
X150093671Y-109552419D02*
X150007957Y-109504800D01*
X150007957Y-109504800D02*
X149950814Y-109409561D01*
X149950814Y-109409561D02*
X149922243Y-109314323D01*
X149922243Y-109314323D02*
X149893671Y-109123847D01*
X149893671Y-109123847D02*
X149893671Y-108980990D01*
X149893671Y-108980990D02*
X149922243Y-108790514D01*
X149922243Y-108790514D02*
X149950814Y-108695276D01*
X149950814Y-108695276D02*
X150007957Y-108600038D01*
X150007957Y-108600038D02*
X150093671Y-108552419D01*
X150093671Y-108552419D02*
X150150814Y-108552419D01*
X150150814Y-108552419D02*
X150236528Y-108600038D01*
X150236528Y-108600038D02*
X150265100Y-108647657D01*
X150465100Y-108552419D02*
X150865100Y-108552419D01*
X150865100Y-108552419D02*
X150607957Y-109552419D01*
D12*
%TO.C,C4*%
X147488748Y-97255000D02*
X148011252Y-97255000D01*
X147488748Y-98725000D02*
X148011252Y-98725000D01*
%TO.C,R10*%
X151027742Y-103217500D02*
X151502258Y-103217500D01*
X151027742Y-104262500D02*
X151502258Y-104262500D01*
%TO.C,R8*%
X139807500Y-102372742D02*
X139807500Y-102847258D01*
X140852500Y-102372742D02*
X140852500Y-102847258D01*
%TO.C,R13*%
X153857500Y-99637742D02*
X153857500Y-100112258D01*
X154902500Y-99637742D02*
X154902500Y-100112258D01*
D13*
%TO.C,U1*%
X143433000Y-100533000D02*
X143433000Y-101239959D01*
X143433000Y-104180041D02*
X143433000Y-104887000D01*
X143433000Y-104887000D02*
X144139959Y-104887000D01*
X144139959Y-100533000D02*
X143433000Y-100533000D01*
X147080041Y-104887000D02*
X147787000Y-104887000D01*
X147787000Y-100533000D02*
X147080041Y-100533000D01*
X147787000Y-101239959D02*
X147787000Y-100533000D01*
X147787000Y-104887000D02*
X147787000Y-104180041D01*
D12*
%TO.C,D1*%
X137330100Y-83037500D02*
X137330100Y-85322500D01*
X138800100Y-83037500D02*
X137330100Y-83037500D01*
X138800100Y-85322500D02*
X138800100Y-83037500D01*
%TO.C,C5*%
X147589520Y-105945000D02*
X147870680Y-105945000D01*
X147589520Y-106965000D02*
X147870680Y-106965000D01*
%TO.C,R11*%
X151147742Y-97577500D02*
X151622258Y-97577500D01*
X151147742Y-98622500D02*
X151622258Y-98622500D01*
%TO.C,R7*%
X137617500Y-99007742D02*
X137617500Y-99482258D01*
X138662500Y-99007742D02*
X138662500Y-99482258D01*
%TO.C,R16*%
X138594100Y-94492742D02*
X138594100Y-94967258D01*
X139639100Y-94492742D02*
X139639100Y-94967258D01*
%TO.C,C2*%
X143494420Y-97420000D02*
X143775580Y-97420000D01*
X143494420Y-98440000D02*
X143775580Y-98440000D01*
%TO.C,R3*%
X145840900Y-94512742D02*
X145840900Y-94987258D01*
X146885900Y-94512742D02*
X146885900Y-94987258D01*
%TO.C,C6*%
X156005000Y-104588748D02*
X156005000Y-105111252D01*
X157475000Y-104588748D02*
X157475000Y-105111252D01*
%TO.C,JP1*%
X131430000Y-82280000D02*
X134230000Y-82280000D01*
X131430000Y-84280000D02*
X131430000Y-82280000D01*
X134230000Y-82280000D02*
X134230000Y-84280000D01*
X134230000Y-84280000D02*
X131430000Y-84280000D01*
%TO.C,R15*%
X131192600Y-105582742D02*
X131192600Y-106057258D01*
X132237600Y-105582742D02*
X132237600Y-106057258D01*
%TO.C,R6*%
X135227500Y-98987742D02*
X135227500Y-99462258D01*
X136272500Y-98987742D02*
X136272500Y-99462258D01*
%TO.C,R5*%
X140405800Y-94492742D02*
X140405800Y-94967258D01*
X141450800Y-94492742D02*
X141450800Y-94967258D01*
%TO.C,R1*%
X147652600Y-94522742D02*
X147652600Y-94997258D01*
X148697600Y-94522742D02*
X148697600Y-94997258D01*
%TO.C,R14*%
X151997500Y-106527742D02*
X151997500Y-107002258D01*
X153042500Y-106527742D02*
X153042500Y-107002258D01*
%TO.C,C1*%
X137660000Y-102795580D02*
X137660000Y-102514420D01*
X138680000Y-102795580D02*
X138680000Y-102514420D01*
%TO.C,R2*%
X142217500Y-94962258D02*
X142217500Y-94487742D01*
X143262500Y-94962258D02*
X143262500Y-94487742D01*
%TO.C,R17*%
X156177500Y-100967742D02*
X156177500Y-101442258D01*
X157222500Y-100967742D02*
X157222500Y-101442258D01*
D14*
%TO.C,REF\u002A\u002A*%
G36*
X139305100Y-111915000D02*
G01*
X139295100Y-112055000D01*
X139265100Y-112185000D01*
X139215100Y-112305000D01*
X138875100Y-112145000D01*
X138905100Y-112065000D01*
X138915100Y-111985000D01*
X138915100Y-111905000D01*
X139305100Y-111915000D01*
G37*
G36*
X140195100Y-111965000D02*
G01*
X140175100Y-111975000D01*
X140155100Y-111975000D01*
X140125100Y-111985000D01*
X140085100Y-111985000D01*
X140055100Y-111995000D01*
X140015100Y-111995000D01*
X139995100Y-112005000D01*
X139975100Y-112005000D01*
X139895100Y-111795000D01*
X140075100Y-111775000D01*
X140145100Y-111765000D01*
X140195100Y-111965000D01*
G37*
G36*
X142415100Y-111695000D02*
G01*
X142905100Y-111185000D01*
X143365100Y-111185000D01*
X142835100Y-111705000D01*
X143425100Y-112605000D01*
X142955100Y-112605000D01*
X142565100Y-111975000D01*
X142415100Y-112115000D01*
X142415100Y-112605000D01*
X142025100Y-112605000D01*
X142025100Y-110865000D01*
X142415100Y-110655000D01*
X142415100Y-111695000D01*
G37*
G36*
X144335100Y-110665000D02*
G01*
X144335100Y-110945000D01*
X144165100Y-110945000D01*
X144125100Y-110955000D01*
X144085100Y-110975000D01*
X144065100Y-111005000D01*
X144055100Y-111025000D01*
X144055100Y-111065000D01*
X144045100Y-111105000D01*
X144045100Y-111185000D01*
X144315100Y-111185000D01*
X144315100Y-111445000D01*
X144045100Y-111445000D01*
X144045100Y-112605000D01*
X143665100Y-112605000D01*
X143665100Y-111445000D01*
X143275100Y-111445000D01*
X143315100Y-111415000D01*
X143475100Y-111255000D01*
X143515100Y-111225000D01*
X143545100Y-111185000D01*
X143665100Y-111185000D01*
X143665100Y-110985000D01*
X143695100Y-110905000D01*
X143725100Y-110835000D01*
X143775100Y-110775000D01*
X143845100Y-110725000D01*
X143925100Y-110685000D01*
X144025100Y-110655000D01*
X144315100Y-110655000D01*
X144335100Y-110665000D01*
G37*
G36*
X141865100Y-111165000D02*
G01*
X141875100Y-111165000D01*
X141875100Y-111525000D01*
X141865100Y-111525000D01*
X141845100Y-111515000D01*
X141735100Y-111515000D01*
X141635100Y-111525000D01*
X141555100Y-111545000D01*
X141485100Y-111585000D01*
X141435100Y-111645000D01*
X141395100Y-111715000D01*
X141375100Y-111785000D01*
X141355100Y-111875000D01*
X141355100Y-112605000D01*
X140965100Y-112605000D01*
X140965100Y-111255000D01*
X141015100Y-111245000D01*
X141055100Y-111235000D01*
X141105100Y-111235000D01*
X141155100Y-111225000D01*
X141195100Y-111215000D01*
X141295100Y-111195000D01*
X141335100Y-111185000D01*
X141335100Y-111455000D01*
X141375100Y-111385000D01*
X141415100Y-111335000D01*
X141465100Y-111275000D01*
X141515100Y-111235000D01*
X141585100Y-111195000D01*
X141645100Y-111175000D01*
X141715100Y-111155000D01*
X141855100Y-111155000D01*
X141865100Y-111165000D01*
G37*
G36*
X144815100Y-111985000D02*
G01*
X144835100Y-112145000D01*
X144845100Y-112205000D01*
X144905100Y-112285000D01*
X144955100Y-112315000D01*
X145005100Y-112325000D01*
X145065100Y-112335000D01*
X145145100Y-112325000D01*
X145205100Y-112315000D01*
X145255100Y-112285000D01*
X145295100Y-112245000D01*
X145325100Y-112185000D01*
X145355100Y-112115000D01*
X145365100Y-112035000D01*
X145365100Y-111185000D01*
X145755100Y-111185000D01*
X145755100Y-112605000D01*
X145385100Y-112605000D01*
X145385100Y-112405000D01*
X145375100Y-112405000D01*
X145335100Y-112465000D01*
X145295100Y-112515000D01*
X145245100Y-112555000D01*
X145185100Y-112585000D01*
X145135100Y-112605000D01*
X145075100Y-112625000D01*
X145005100Y-112635000D01*
X144945100Y-112645000D01*
X144805100Y-112635000D01*
X144695100Y-112595000D01*
X144605100Y-112545000D01*
X144535100Y-112485000D01*
X144485100Y-112395000D01*
X144455100Y-112295000D01*
X144435100Y-112185000D01*
X144435100Y-111185000D01*
X144815100Y-111185000D01*
X144815100Y-111985000D01*
G37*
G36*
X146915100Y-111165000D02*
G01*
X147025100Y-111195000D01*
X147115100Y-111245000D01*
X147185100Y-111315000D01*
X147235100Y-111395000D01*
X147265100Y-111495000D01*
X147285100Y-111605000D01*
X147295100Y-111735000D01*
X147295100Y-112605000D01*
X146905100Y-112605000D01*
X146905100Y-111805000D01*
X146895100Y-111725000D01*
X146885100Y-111655000D01*
X146875100Y-111595000D01*
X146845100Y-111545000D01*
X146815100Y-111505000D01*
X146765100Y-111475000D01*
X146715100Y-111465000D01*
X146655100Y-111455000D01*
X146575100Y-111465000D01*
X146515100Y-111475000D01*
X146465100Y-111505000D01*
X146425100Y-111555000D01*
X146395100Y-111605000D01*
X146365100Y-111675000D01*
X146355100Y-111765000D01*
X146355100Y-112605000D01*
X145965100Y-112605000D01*
X145965100Y-111185000D01*
X146335100Y-111185000D01*
X146335100Y-111385000D01*
X146345100Y-111385000D01*
X146385100Y-111325000D01*
X146425100Y-111285000D01*
X146475100Y-111245000D01*
X146535100Y-111205000D01*
X146655100Y-111165000D01*
X146715100Y-111155000D01*
X146775100Y-111155000D01*
X146915100Y-111165000D01*
G37*
G36*
X150708641Y-110674779D02*
G01*
X150830465Y-110713785D01*
X150944171Y-110772361D01*
X151335615Y-110453183D01*
X151689941Y-110807509D01*
X151368029Y-111202306D01*
X151464040Y-111434045D01*
X151970795Y-111485568D01*
X151970795Y-111986690D01*
X151464040Y-112038213D01*
X151368029Y-112269952D01*
X151689941Y-112664749D01*
X151335615Y-113019075D01*
X150944172Y-112699898D01*
X150763596Y-112792923D01*
X150495674Y-112146202D01*
X150733257Y-111953728D01*
X150780644Y-111857596D01*
X150799723Y-111746468D01*
X150786459Y-111634496D01*
X150741942Y-111530901D01*
X150669836Y-111444212D01*
X150576082Y-111381569D01*
X150468401Y-111348131D01*
X150355654Y-111346649D01*
X150247128Y-111377248D01*
X150151762Y-111437405D01*
X150077406Y-111522168D01*
X150030182Y-111624560D01*
X150014820Y-111730363D01*
X150084073Y-111958693D01*
X150157683Y-112039901D01*
X150498672Y-112244229D01*
X150277705Y-112244229D01*
X150051663Y-112789861D01*
X149900398Y-112719706D01*
X149868074Y-112701321D01*
X149478375Y-113019075D01*
X149124049Y-112664749D01*
X149445961Y-112269952D01*
X149349950Y-112038213D01*
X148843195Y-111986690D01*
X148843195Y-111485568D01*
X149349950Y-111434045D01*
X149445961Y-111202306D01*
X149124049Y-110807509D01*
X149478375Y-110453183D01*
X149873172Y-110775095D01*
X150104911Y-110679084D01*
X150156434Y-110172329D01*
X150657556Y-110172329D01*
X150708641Y-110674779D01*
G37*
G36*
X138815100Y-111165000D02*
G01*
X138955100Y-111215000D01*
X139065100Y-111285000D01*
X139155100Y-111385000D01*
X139225100Y-111495000D01*
X139265100Y-111625000D01*
X139295100Y-111765000D01*
X139305100Y-111915000D01*
X138915100Y-111905000D01*
X138915100Y-111815000D01*
X138905100Y-111735000D01*
X138875100Y-111655000D01*
X138845100Y-111585000D01*
X138795100Y-111525000D01*
X138735100Y-111485000D01*
X138665100Y-111455000D01*
X138575100Y-111445000D01*
X138495100Y-111455000D01*
X138415100Y-111485000D01*
X138365100Y-111525000D01*
X138315100Y-111585000D01*
X138285100Y-111655000D01*
X138255100Y-111735000D01*
X138245100Y-111815000D01*
X138245100Y-111985000D01*
X138285100Y-112145000D01*
X138315100Y-112215000D01*
X138365100Y-112265000D01*
X138425100Y-112315000D01*
X138495100Y-112335000D01*
X138585100Y-112345000D01*
X138665100Y-112335000D01*
X138745100Y-112315000D01*
X138805100Y-112265000D01*
X138845100Y-112215000D01*
X138875100Y-112145000D01*
X139215100Y-112305000D01*
X139155100Y-112415000D01*
X139065100Y-112505000D01*
X138955100Y-112585000D01*
X138835100Y-112625000D01*
X138685100Y-112645000D01*
X138505100Y-112615000D01*
X138445100Y-112585000D01*
X138345100Y-112525000D01*
X138265100Y-112425000D01*
X138255100Y-112425000D01*
X138255100Y-113445000D01*
X138165100Y-113355000D01*
X138015100Y-113235000D01*
X137925100Y-113145000D01*
X137875100Y-113105000D01*
X137875100Y-111255000D01*
X137915100Y-111245000D01*
X137965100Y-111235000D01*
X138015100Y-111235000D01*
X138055100Y-111225000D01*
X138105100Y-111215000D01*
X138145100Y-111205000D01*
X138245100Y-111185000D01*
X138245100Y-111365000D01*
X138285100Y-111315000D01*
X138325100Y-111275000D01*
X138375100Y-111235000D01*
X138475100Y-111175000D01*
X138595100Y-111155000D01*
X138665100Y-111155000D01*
X138815100Y-111165000D01*
G37*
G36*
X137275100Y-111175000D02*
G01*
X137375100Y-111205000D01*
X137465100Y-111245000D01*
X137545100Y-111305000D01*
X137605100Y-111385000D01*
X137655100Y-111485000D01*
X137675100Y-111605000D01*
X137305100Y-111605000D01*
X137295100Y-111555000D01*
X137275100Y-111505000D01*
X137255100Y-111475000D01*
X137225100Y-111455000D01*
X137185100Y-111435000D01*
X137135100Y-111415000D01*
X136965100Y-111415000D01*
X136935100Y-111425000D01*
X136895100Y-111435000D01*
X136865100Y-111445000D01*
X136825100Y-111505000D01*
X136825100Y-111545000D01*
X136835100Y-111585000D01*
X136865100Y-111625000D01*
X136905100Y-111655000D01*
X136965100Y-111685000D01*
X137025100Y-111705000D01*
X137105100Y-111715000D01*
X137345100Y-111775000D01*
X137435100Y-111795000D01*
X137575100Y-111875000D01*
X137635100Y-111925000D01*
X137675100Y-111985000D01*
X137705100Y-112055000D01*
X137715100Y-112145000D01*
X137695100Y-112275000D01*
X137655100Y-112385000D01*
X137595100Y-112465000D01*
X137515100Y-112535000D01*
X137415100Y-112585000D01*
X137305100Y-112615000D01*
X137185100Y-112635000D01*
X137065100Y-112645000D01*
X136945100Y-112635000D01*
X136825100Y-112615000D01*
X136715100Y-112585000D01*
X136615100Y-112535000D01*
X136535100Y-112465000D01*
X136465100Y-112375000D01*
X136425100Y-112275000D01*
X136405100Y-112145000D01*
X136775100Y-112145000D01*
X136775100Y-112205000D01*
X136795100Y-112255000D01*
X136825100Y-112295000D01*
X136905100Y-112355000D01*
X136965100Y-112365000D01*
X137015100Y-112375000D01*
X137075100Y-112385000D01*
X137115100Y-112375000D01*
X137155100Y-112375000D01*
X137195100Y-112365000D01*
X137235100Y-112345000D01*
X137275100Y-112315000D01*
X137305100Y-112285000D01*
X137325100Y-112205000D01*
X137315100Y-112165000D01*
X137295100Y-112125000D01*
X137255100Y-112095000D01*
X137205100Y-112065000D01*
X137145100Y-112045000D01*
X136985100Y-112005000D01*
X136885100Y-111985000D01*
X136795100Y-111965000D01*
X136715100Y-111935000D01*
X136645100Y-111905000D01*
X136575100Y-111865000D01*
X136515100Y-111825000D01*
X136475100Y-111765000D01*
X136445100Y-111695000D01*
X136435100Y-111605000D01*
X136445100Y-111485000D01*
X136485100Y-111385000D01*
X136555100Y-111305000D01*
X136625100Y-111245000D01*
X136725100Y-111195000D01*
X136825100Y-111175000D01*
X136935100Y-111155000D01*
X137165100Y-111155000D01*
X137275100Y-111175000D01*
G37*
G36*
X143915100Y-108385000D02*
G01*
X143995100Y-108415000D01*
X144055100Y-108445000D01*
X144095100Y-108475000D01*
X144105100Y-108485000D01*
X144075100Y-108485000D01*
X144045100Y-108475000D01*
X144015100Y-108475000D01*
X143975100Y-108485000D01*
X143925100Y-108495000D01*
X143885100Y-108515000D01*
X143845100Y-108545000D01*
X143825100Y-108575000D01*
X143815100Y-108605000D01*
X143805100Y-108625000D01*
X143795100Y-108655000D01*
X143805100Y-108685000D01*
X143815100Y-108725000D01*
X143835100Y-108755000D01*
X143855100Y-108795000D01*
X143885100Y-108825000D01*
X143915100Y-108845000D01*
X143955100Y-108875000D01*
X143985100Y-108895000D01*
X144065100Y-108935000D01*
X144135100Y-108935000D01*
X144165100Y-108925000D01*
X144195100Y-108905000D01*
X144215100Y-108845000D01*
X144215100Y-108765000D01*
X144295100Y-108805000D01*
X144375100Y-108895000D01*
X144445100Y-109015000D01*
X144495100Y-109155000D01*
X144525100Y-109315000D01*
X144515100Y-109495000D01*
X144465100Y-109675000D01*
X144365100Y-109855000D01*
X144295100Y-109945000D01*
X144215100Y-110025000D01*
X144135100Y-110095000D01*
X144035100Y-110155000D01*
X143935100Y-110195000D01*
X143825100Y-110225000D01*
X143705100Y-110245000D01*
X143515100Y-110245000D01*
X143455100Y-110255000D01*
X143405100Y-110285000D01*
X143305100Y-110365000D01*
X143255100Y-110425000D01*
X143125100Y-110555000D01*
X143075100Y-110625000D01*
X143015100Y-110685000D01*
X142965100Y-110745000D01*
X142915100Y-110795000D01*
X142885100Y-110835000D01*
X142855100Y-110865000D01*
X142835100Y-110895000D01*
X142825100Y-110895000D01*
X142825100Y-109615000D01*
X142845100Y-109435000D01*
X142865100Y-109375000D01*
X142895100Y-109315000D01*
X142925100Y-109265000D01*
X142975100Y-109235000D01*
X143015100Y-109205000D01*
X143115100Y-109165000D01*
X143175100Y-109155000D01*
X143255100Y-109155000D01*
X143295100Y-109165000D01*
X143315100Y-109165000D01*
X143335100Y-109175000D01*
X143325100Y-109185000D01*
X143285100Y-109205000D01*
X143255100Y-109215000D01*
X143215100Y-109255000D01*
X143195100Y-109285000D01*
X143185100Y-109315000D01*
X143185100Y-109345000D01*
X143195100Y-109375000D01*
X143215100Y-109415000D01*
X143245100Y-109445000D01*
X143275100Y-109465000D01*
X143325100Y-109485000D01*
X143375100Y-109495000D01*
X143455100Y-109495000D01*
X143535100Y-109475000D01*
X143595100Y-109435000D01*
X143635100Y-109385000D01*
X143655100Y-109325000D01*
X143655100Y-109255000D01*
X143625100Y-109185000D01*
X143555100Y-109105000D01*
X143475100Y-109015000D01*
X143405100Y-108935000D01*
X143355100Y-108845000D01*
X143335100Y-108755000D01*
X143335100Y-108675000D01*
X143365100Y-108585000D01*
X143415100Y-108515000D01*
X143505100Y-108435000D01*
X143615100Y-108375000D01*
X143725100Y-108355000D01*
X143825100Y-108355000D01*
X143915100Y-108385000D01*
G37*
G36*
X140285100Y-111165000D02*
G01*
X140345100Y-111165000D01*
X140395100Y-111175000D01*
X140445100Y-111195000D01*
X140495100Y-111205000D01*
X140545100Y-111225000D01*
X140665100Y-111315000D01*
X140695100Y-111355000D01*
X140715100Y-111395000D01*
X140735100Y-111445000D01*
X140745100Y-111495000D01*
X140745100Y-112365000D01*
X140755100Y-112385000D01*
X140755100Y-112475000D01*
X140765100Y-112495000D01*
X140765100Y-112515000D01*
X140775100Y-112535000D01*
X140775100Y-112565000D01*
X140785100Y-112585000D01*
X140795100Y-112595000D01*
X140795100Y-112605000D01*
X140405100Y-112605000D01*
X140405100Y-112595000D01*
X140395100Y-112585000D01*
X140395100Y-112575000D01*
X140385100Y-112565000D01*
X140385100Y-112535000D01*
X140375100Y-112525000D01*
X140375100Y-112465000D01*
X140355100Y-112495000D01*
X140325100Y-112515000D01*
X140305100Y-112535000D01*
X140275100Y-112555000D01*
X140245100Y-112565000D01*
X140215100Y-112585000D01*
X140095100Y-112625000D01*
X140065100Y-112625000D01*
X140035100Y-112635000D01*
X139995100Y-112635000D01*
X139965100Y-112645000D01*
X139855100Y-112645000D01*
X139805100Y-112635000D01*
X139755100Y-112635000D01*
X139715100Y-112625000D01*
X139665100Y-112605000D01*
X139625100Y-112585000D01*
X139595100Y-112565000D01*
X139555100Y-112545000D01*
X139525100Y-112515000D01*
X139505100Y-112485000D01*
X139475100Y-112445000D01*
X139455100Y-112415000D01*
X139445100Y-112365000D01*
X139425100Y-112325000D01*
X139425100Y-112275000D01*
X139415100Y-112225000D01*
X139435100Y-112115000D01*
X139465100Y-112025000D01*
X139505100Y-111955000D01*
X139575100Y-111895000D01*
X139645100Y-111855000D01*
X139725100Y-111825000D01*
X139805100Y-111805000D01*
X139895100Y-111795000D01*
X139975100Y-112005000D01*
X139945100Y-112015000D01*
X139925100Y-112025000D01*
X139915100Y-112035000D01*
X139875100Y-112055000D01*
X139865100Y-112065000D01*
X139845100Y-112075000D01*
X139815100Y-112135000D01*
X139815100Y-112155000D01*
X139805100Y-112175000D01*
X139805100Y-112225000D01*
X139815100Y-112255000D01*
X139815100Y-112275000D01*
X139825100Y-112295000D01*
X139835100Y-112305000D01*
X139845100Y-112325000D01*
X139865100Y-112335000D01*
X139875100Y-112345000D01*
X139915100Y-112365000D01*
X139935100Y-112365000D01*
X139955100Y-112375000D01*
X139975100Y-112375000D01*
X139995100Y-112385000D01*
X140045100Y-112385000D01*
X140095100Y-112375000D01*
X140145100Y-112375000D01*
X140185100Y-112355000D01*
X140225100Y-112345000D01*
X140255100Y-112325000D01*
X140275100Y-112305000D01*
X140295100Y-112275000D01*
X140315100Y-112255000D01*
X140335100Y-112195000D01*
X140345100Y-112175000D01*
X140355100Y-112145000D01*
X140355100Y-111915000D01*
X140335100Y-111935000D01*
X140315100Y-111935000D01*
X140275100Y-111955000D01*
X140255100Y-111955000D01*
X140235100Y-111965000D01*
X140195100Y-111965000D01*
X140145100Y-111765000D01*
X140215100Y-111745000D01*
X140275100Y-111725000D01*
X140325100Y-111695000D01*
X140355100Y-111655000D01*
X140355100Y-111545000D01*
X140325100Y-111485000D01*
X140315100Y-111475000D01*
X140305100Y-111455000D01*
X140245100Y-111425000D01*
X140225100Y-111425000D01*
X140205100Y-111415000D01*
X140025100Y-111415000D01*
X139925100Y-111465000D01*
X139885100Y-111505000D01*
X139875100Y-111525000D01*
X139865100Y-111555000D01*
X139855100Y-111575000D01*
X139855100Y-111625000D01*
X139465100Y-111625000D01*
X139485100Y-111505000D01*
X139505100Y-111445000D01*
X139535100Y-111405000D01*
X139565100Y-111355000D01*
X139595100Y-111315000D01*
X139635100Y-111285000D01*
X139735100Y-111225000D01*
X139785100Y-111205000D01*
X139835100Y-111195000D01*
X139895100Y-111175000D01*
X139955100Y-111165000D01*
X140005100Y-111155000D01*
X140235100Y-111155000D01*
X140285100Y-111165000D01*
G37*
D12*
%TO.C,R4*%
X144029200Y-94957258D02*
X144029200Y-94482742D01*
X145074200Y-94957258D02*
X145074200Y-94482742D01*
%TO.C,R19*%
X147442842Y-107602500D02*
X147917358Y-107602500D01*
X147442842Y-108647500D02*
X147917358Y-108647500D01*
%TO.C,R12*%
X153907500Y-103412258D02*
X153907500Y-102937742D01*
X154952500Y-103412258D02*
X154952500Y-102937742D01*
%TO.C,R9*%
X139787500Y-105632742D02*
X139787500Y-106107258D01*
X140832500Y-105632742D02*
X140832500Y-106107258D01*
%TO.C,C3*%
X139780000Y-99335580D02*
X139780000Y-99054420D01*
X140800000Y-99335580D02*
X140800000Y-99054420D01*
%TO.C,C7*%
X149860000Y-106734420D02*
X149860000Y-107015580D01*
X150880000Y-106734420D02*
X150880000Y-107015580D01*
%TD*%
D15*
X155535100Y-78765000D03*
X131765100Y-89215000D03*
X131765100Y-91755000D03*
X131765100Y-94295000D03*
X131765100Y-96835000D03*
X131765100Y-99375000D03*
X131765100Y-101915000D03*
X133035100Y-78925000D03*
X154415100Y-86925000D03*
X147415100Y-86925000D03*
X144905100Y-77675000D03*
X147445100Y-77675000D03*
X149985100Y-77675000D03*
X132965100Y-110915000D03*
X155465100Y-110955000D03*
M02*
